<?xml version="1.0" standalone="no"?><!DOCTYPE svg PUBLIC "-//W3C//DTD SVG 1.1//EN" "http://www.w3.org/Graphics/SVG/1.1/DTD/svg11.dtd"><svg xmlns="http://www.w3.org/2000/svg" version="1.1" width="2893.917" height="1007.083" xmlns:xlink="http://www.w3.org/1999/xlink" xlink="http://www.w3.org/1999/xlink" style="position:relative;overflow:hidden;" viewBox="72.917 6.583 2893.917 1007.083"><defs/><g><g width="200.333" height="239.667" transform="scale(1,1) translate(109.5,763.167)"><g transform="scale(1,1) translate(0,0)" fill="#FFC000" stroke="#000000" stroke-opacity="1" fill-opacity="1"><path d="M0,239.667 L0,0 L200.333,0 L200.333,239.667 L0,239.667 z" stroke-width="11.333" stroke-dasharray="none"/></g></g><g width="161" height="436.5" transform="scale(1,1) translate(109.5,326.667)"><g transform="scale(1,1) translate(0,0)" fill="#00B050" stroke="#000000" stroke-opacity="1" fill-opacity="1"><path d="M0,436.5 L0,0 L161,0 L161,436.5 L0,436.5 z" stroke-width="11.333" stroke-dasharray="none"/></g></g><g width="161" height="279" transform="scale(1,1) translate(109.5,46.167)"><g transform="scale(1,1) translate(0,0)" fill="#FFFFFF" stroke="#000000" stroke-opacity="1" fill-opacity="1"><path d="M0,279 L0,0 L161,0 L161,279 L0,279 z" stroke-width="11.333" stroke-dasharray="none"/></g></g><g width="869.5" height="357.833" transform="scale(1,1) translate(270.5,46.167)"><g transform="scale(1,1) translate(0,0)" fill="#FFC000" stroke="#000000" stroke-opacity="1" fill-opacity="1"><path d="M0,357.833 L0,0 L869.5,0 L869.5,357.833 L0,357.833 z" stroke-width="11.333" stroke-dasharray="none"/></g></g><g width="200.333" height="357.833" transform="scale(1,1) translate(1140,46.167)"><g transform="scale(1,1) translate(0,0)" fill="#FFC000" stroke="#000000" stroke-opacity="1" fill-opacity="1"><path d="M0,357.833 L0,0 L200.333,0 L200.333,357.833 L0,357.833 z" stroke-width="11.333" stroke-dasharray="none"/></g></g><g width="318.5" height="357.833" transform="scale(1,1) translate(1340.333,46.167)"><g transform="scale(1,1) translate(0,0)" fill="#FFC000" stroke="#000000" stroke-opacity="1" fill-opacity="1"><path d="M0,357.833 L0,0 L318.5,0 L318.5,357.833 L0,357.833 z" stroke-width="11.333" stroke-dasharray="none"/></g></g><g width="357.833" height="357.833" transform="scale(1,1) translate(1658.833,46.833)"><g transform="scale(1,1) translate(0,0)" fill="#FFC000" stroke="#000000" stroke-opacity="1" fill-opacity="1"><path d="M0,357.833 L0,0 L357.833,0 L357.833,357.833 L0,357.833 z" stroke-width="11.333" stroke-dasharray="none"/></g></g><g width="318.333" height="357.833" transform="scale(1,1) translate(2016.667,46.833)"><g transform="scale(1,1) translate(0,0)" fill="#FFC000" stroke="#000000" stroke-opacity="1" fill-opacity="1"><path d="M0,357.833 L0,0 L318.333,0 L318.333,357.833 L0,357.833 z" stroke-width="11.333" stroke-dasharray="none"/></g></g><g width="82.167" height="82.167" transform="scale(1,1) translate(2335,46.167)"><g transform="scale(1,1) translate(0,0)" fill="#FFFFFF" stroke="#000000" stroke-opacity="1" fill-opacity="1"><path d="M0,82.167 L0,0 L82.167,0 L82.167,82.167 L0,82.167 z" stroke-width="11.333" stroke-dasharray="none"/></g></g><g width="539" height="357.833" transform="scale(1,1) translate(2417.167,46.167)"><g transform="scale(1,1) translate(0,0)" fill="#FFC000" stroke="#000000" stroke-opacity="1" fill-opacity="1"><path d="M0,357.833 L0,0 L539,0 L539,357.833 L0,357.833 z" stroke-width="11.333" stroke-dasharray="none"/></g></g><g width="444.333" height="168.833" transform="scale(1,1) translate(1848.667,631.5)"><g transform="scale(1,1) translate(0,0)" fill="#00B050" stroke="#000000" stroke-opacity="1" fill-opacity="1"><path d="M0,90 L0,0 L405,0 L405,78.667 L444.333,78.667 L444.333,168.833 L39.333,168.833 L39.333,90 L0,90 z" stroke-width="11.333" stroke-dasharray="none"/></g></g><g width="2846.5" height="956.833" transform="scale(1,1) translate(109.417,45.917)"><g transform="scale(1,1) translate(0,0)" fill="none" stroke="#000000" stroke-opacity="1"><path d="M0,956.833 L0,0 L2846.5,0 L2846.5,956.833 L0,956.833 z" stroke-width="11.833" stroke-dasharray="none"/></g></g><g width="82.167" height="275.833" transform="scale(1,1) translate(2335,128.333)"><g transform="scale(1,1) translate(0,0)" fill="#FFFFFF" stroke="#000000" stroke-opacity="1" fill-opacity="1"><path d="M0,275.833 L0,0 L82.167,0 L82.167,275.833 L0,275.833 z" stroke-width="11.333" stroke-dasharray="none"/></g></g><g width="39.667" height="279" transform="scale(1,1) translate(270.5,484.167)"><g transform="scale(1,1) translate(0,0)" fill="#000000" stroke="#000000" stroke-opacity="1" fill-opacity="1"><path d="M0,279 L0,0 L39.667,0 L39.667,279 L0,279 z" stroke-width="11.333" stroke-dasharray="none"/></g></g><g width="155.167" height="277.833" transform="scale(1,1) translate(109.667,43.333)"><g transform="scale(1,1) translate(0,0)" fill="#000000" stroke="#000000" stroke-opacity="1"><path d="M0,0 L155.167,277.833" fill="none" stroke-width="11.833" stroke-dasharray="none"/><g><g stroke-dasharray="none"><path d="M-11.833,-11.833L11.833,-11.833L11.833,11.833L-11.833,11.833z" stroke-width="0" fill="none"/></g></g></g></g><g width="149.5" height="274.667" transform="scale(1,1) translate(115.333,46.5)"><g transform="scale(1,1) translate(0,0)" fill="#000000" stroke="#000000" stroke-opacity="1"><path d="M0,274.667 L149.5,0" fill="none" stroke-width="11.833" stroke-dasharray="none"/><g><g stroke-dasharray="none"><path d="M-11.833,262.834L11.833,262.834L11.833,286.5L-11.833,286.5z" stroke-width="0" fill="none"/></g></g></g></g><g width="139" height="204.167" transform="scale(1,1) translate(1583.5,483.167)"><g transform="scale(1,1) translate(0,0)" fill="#FFFFFF" stroke="#000000" stroke-opacity="1" fill-opacity="1"><path d="M0,204.167 L0,0 L139,0 L139,204.167 L0,204.167 z" stroke-width="11.333" stroke-dasharray="none"/></g></g><g width="279" height="519.167" transform="scale(1,1) translate(310.167,483.167)"><g transform="scale(1,1) translate(0,0)" fill="none" stroke="#000000" stroke-opacity="1"><path d="M0,519.167 L0,0 L279,0 L279,519.167 L0,519.167 z" stroke-width="11.333" stroke-dasharray="none"/></g></g><g width="357.833" height="519.167" transform="scale(1,1) translate(589.167,483.167)"><g transform="scale(1,1) translate(0,0)" fill="none" stroke="#000000" stroke-opacity="1"><path d="M0,519.167 L0,0 L357.833,0 L357.833,519.167 L0,519.167 z" stroke-width="11.333" stroke-dasharray="none"/></g></g><g width="318.333" height="519.167" transform="scale(1,1) translate(1265.5,483.167)"><g transform="scale(1,1) translate(0,0)" fill="none" stroke="#000000" stroke-opacity="1"><path d="M0,519.167 L0,0 L318.333,0 L318.333,519.167 L0,519.167 z" stroke-width="11.333" stroke-dasharray="none"/></g></g><g width="318.5" height="519.167" transform="scale(1,1) translate(947,483.167)"><g transform="scale(1,1) translate(0,0)" fill="none" stroke="#000000" stroke-opacity="1"><path d="M0,519.167 L0,0 L318.5,0 L318.5,519.167 L0,519.167 z" stroke-width="11.333" stroke-dasharray="none"/></g></g><g width="2208.167" height="598.667" transform="scale(1,1) translate(270.5,403.833)"><g transform="scale(1,1) translate(0,0)" fill="none" stroke="#000000" stroke-opacity="1"><path d="M0,79.333 L0,0 L2208.167,0 L2208.167,598.667 L1451,598.667 L1451,79.333 L0,79.333 z" stroke-width="11.333" stroke-dasharray="none"/></g></g><g width="66.5" height="90" transform="scale(1,1) translate(1848.667,800.333)"><g transform="scale(1,1) translate(0,0)" fill="#FFFFFF" stroke="#000000" stroke-opacity="1" fill-opacity="1"><path d="M0,90 L0,0 L66.5,0 L66.5,90 L0,90 z" stroke-width="11.333" stroke-dasharray="none"/></g></g><g width="286.833" height="129.5" transform="scale(1,1) translate(1915.167,800.333)"><g transform="scale(1,1) translate(0,0)" fill="#FFFFFF" stroke="#000000" stroke-opacity="1" fill-opacity="1"><path d="M0,129.5 L0,0 L286.833,0 L286.833,129.5 L0,129.5 z" stroke-width="11.333" stroke-dasharray="none"/></g></g><g width="90.167" height="90" transform="scale(1,1) translate(2202,800.333)"><g transform="scale(1,1) translate(0,0)" fill="#FFFFFF" stroke="#000000" stroke-opacity="1" fill-opacity="1"><path d="M0,90 L0,0 L90.167,0 L90.167,90 L0,90 z" stroke-width="11.333" stroke-dasharray="none"/></g></g><g width="82.167" height="121.667" transform="scale(1,1) translate(2016.667,282.833)"><g transform="scale(1,1) translate(0,0)" fill="#FFFFFF" stroke="#000000" stroke-opacity="1" fill-opacity="1"><path d="M0,121.667 L0,0 L82.167,0 L82.167,121.667 L0,121.667 z" stroke-width="11.333" stroke-dasharray="none"/></g></g><g width="24.714" height="26" transform="scale(1,1) translate(197.833,872.333)"><g stroke="#000000" opacity="1" stroke-width="0" stroke-dasharray="none" width="24.714" height="26" transform="scale(1,1) translate(0,0)" fill="none" stroke-opacity="1"><rect width="24.714" height="26"/></g><g width="24.713991165161133" height="26" transform="scale(1,1) translate(0,0)"><text width="24.713991165161133" height="24.999998092651367" transform="scale(1,1) translate(0,0.5000009536743164)" xml:space="preserve"><tspan xml:space="preserve" text-rendering="optimizeSpeed" font-size="22.22222222222222" font-weight="normal" font-style="normal" fill="#000000" opacity="1" x="0" text-anchor="start" y="19.792" textLength="24.713991165161133" style="font-family: Arial, Helvetica Neue, Helvetica, sans-serif;">90</tspan></text></g></g><g width="37.071" height="26" transform="scale(1,1) translate(169.833,522)"><g stroke="#000000" opacity="1" stroke-width="0" stroke-dasharray="none" width="37.071" height="26" transform="scale(1,1) translate(0,0)" fill="none" stroke-opacity="1"><rect width="37.071" height="26"/></g><g width="37.070987701416016" height="26" transform="scale(1,1) translate(0,0)"><text width="37.070987701416016" height="24.999998092651367" transform="scale(1,1) translate(0,0.5000009536743164)" xml:space="preserve"><tspan xml:space="preserve" text-rendering="optimizeSpeed" font-size="22.22222222222222" font-weight="normal" font-style="normal" fill="#000000" opacity="1" x="0" text-anchor="start" y="19.792" textLength="37.070987701416016" style="font-family: Arial, Helvetica Neue, Helvetica, sans-serif;">182</tspan></text></g></g><g width="69.833" height="68" transform="rotate(270,245.083,442.667) scale(1,1) translate(210.167,408.667)"><g width="69.833" height="68"><g transform="scale(0.5549683062519956,0.9577464745850787) translate(0,0)"><g><g width="122.833" height="14.5" transform="scale(1,1) translate(1,56.5)"><g stroke="#BFBFBF" opacity="1" stroke-width="0" stroke-dasharray="none" width="122.833" height="14.5" transform="scale(1,1) translate(0,0)" fill="#FFFFFF" fill-opacity="1" stroke-opacity="1"><rect width="122.833" height="14.5"/></g></g><g width="61.333" height="54.5" transform="scale(1,1) translate(0.5,0.5)"><g transform="scale(1,1) translate(0,0)" fill="#000000" stroke="#000000" stroke-opacity="1"><path d="M0,54.5 L0,0 L0,0 L2.101,0.157 L4.148,0.374 L6.144,0.648 L8.093,0.976 L9.996,1.355 L11.857,1.781 L13.677,2.254 L15.459,2.77 L17.202,3.329 L18.91,3.928 L20.583,4.566 L22.221,5.243 L23.827,5.957 L25.401,6.706 L26.943,7.492 L28.455,8.311 L29.936,9.165 L31.388,10.052 L32.811,10.972 L34.204,11.925 L35.569,12.91 L36.905,13.927 L38.213,14.976 L39.493,16.057 L40.745,17.169 L41.968,18.313 L43.164,19.488 L44.331,20.696 L45.469,21.935 L46.579,23.207 L47.66,24.511 L48.712,25.849 L49.734,27.22 L50.726,28.624 L51.687,30.064 L52.616,31.538 L53.514,33.049 L54.379,34.597 L55.209,36.183 L56.005,37.808 L56.765,39.474 L57.487,41.182 L58.17,42.934 L58.813,44.732 L59.412,46.578 L59.967,48.475 L60.474,50.425 L60.931,52.432 L61.333,54.5 L61.333,54.5" fill="none" stroke-width="1" stroke-dasharray="none"/><g><g stroke-dasharray="none"><path d="M-1,53.5L1,53.5L1,55.5L-1,55.5z" stroke-width="0" fill="none"/></g></g></g></g><g width="61.333" height="54.5" transform="scale(1,1) translate(62,0.5)"><g transform="scale(1,1) translate(0,0)" fill="#000000" stroke="#000000" stroke-opacity="1"><path d="M61.333,54.5 L61.333,0 L61.333,0 L59.198,0.118 L57.121,0.301 L55.097,0.545 L53.124,0.845 L51.198,1.199 L49.317,1.603 L47.479,2.055 L45.682,2.553 L43.923,3.095 L42.202,3.679 L40.517,4.304 L38.868,4.968 L37.252,5.671 L35.67,6.411 L34.12,7.187 L32.601,7.999 L31.114,8.846 L29.657,9.728 L28.23,10.643 L26.833,11.592 L25.465,12.574 L24.127,13.588 L22.818,14.635 L21.537,15.715 L20.285,16.828 L19.062,17.972 L17.869,19.149 L16.704,20.359 L15.568,21.602 L14.461,22.878 L13.385,24.187 L12.338,25.53 L11.322,26.908 L10.337,28.32 L9.384,29.768 L8.463,31.253 L7.575,32.774 L6.722,34.335 L5.903,35.934 L5.12,37.574 L4.376,39.257 L3.67,40.984 L3.004,42.756 L2.382,44.576 L1.804,46.447 L1.274,48.371 L0.794,50.352 L0.368,52.394 L0,54.5 L0,54.5" fill="none" stroke-width="1" stroke-dasharray="none"/><g><g stroke-dasharray="none"><path d="M60.333,53.5L62.333,53.5L62.333,55.5L60.333,55.5z" stroke-width="0" fill="none"/></g></g></g></g></g></g></g></g><g width="68.333" height="68" transform="scale(1,1) translate(334,344.5)"><g width="68.333" height="68"><g transform="scale(0.5430477459745063,0.9577464745850787) translate(0,0)"><g><g width="122.833" height="14.5" transform="scale(1,1) translate(1,56.5)"><g stroke="#BFBFBF" opacity="1" stroke-width="0" stroke-dasharray="none" width="122.833" height="14.5" transform="scale(1,1) translate(0,0)" fill="#FFFFFF" fill-opacity="1" stroke-opacity="1"><rect width="122.833" height="14.5"/></g></g><g width="61.333" height="54.5" transform="scale(1,1) translate(0.5,0.5)"><g transform="scale(1,1) translate(0,0)" fill="#000000" stroke="#000000" stroke-opacity="1"><path d="M0,54.5 L0,0 L0,0 L2.101,0.157 L4.148,0.374 L6.144,0.648 L8.093,0.976 L9.996,1.355 L11.857,1.781 L13.677,2.254 L15.459,2.77 L17.202,3.329 L18.91,3.928 L20.583,4.566 L22.221,5.243 L23.827,5.957 L25.401,6.706 L26.943,7.492 L28.455,8.311 L29.936,9.165 L31.388,10.052 L32.811,10.972 L34.204,11.925 L35.569,12.91 L36.905,13.927 L38.213,14.976 L39.493,16.057 L40.745,17.169 L41.968,18.313 L43.164,19.488 L44.331,20.696 L45.469,21.935 L46.579,23.207 L47.66,24.511 L48.712,25.849 L49.734,27.22 L50.726,28.624 L51.687,30.064 L52.616,31.538 L53.514,33.049 L54.379,34.597 L55.209,36.183 L56.005,37.808 L56.765,39.474 L57.487,41.182 L58.17,42.934 L58.813,44.732 L59.412,46.578 L59.967,48.475 L60.474,50.425 L60.931,52.432 L61.333,54.5 L61.333,54.5" fill="none" stroke-width="1" stroke-dasharray="none"/><g><g stroke-dasharray="none"><path d="M-1,53.5L1,53.5L1,55.5L-1,55.5z" stroke-width="0" fill="none"/></g></g></g></g><g width="61.333" height="54.5" transform="scale(1,1) translate(62,0.5)"><g transform="scale(1,1) translate(0,0)" fill="#000000" stroke="#000000" stroke-opacity="1"><path d="M61.333,54.5 L61.333,0 L61.333,0 L59.198,0.118 L57.121,0.301 L55.097,0.545 L53.124,0.845 L51.198,1.199 L49.317,1.603 L47.479,2.055 L45.682,2.553 L43.923,3.095 L42.202,3.679 L40.517,4.304 L38.868,4.968 L37.252,5.671 L35.67,6.411 L34.12,7.187 L32.601,7.999 L31.114,8.846 L29.657,9.728 L28.23,10.643 L26.833,11.592 L25.465,12.574 L24.127,13.588 L22.818,14.635 L21.537,15.715 L20.285,16.828 L19.062,17.972 L17.869,19.149 L16.704,20.359 L15.568,21.602 L14.461,22.878 L13.385,24.187 L12.338,25.53 L11.322,26.908 L10.337,28.32 L9.384,29.768 L8.463,31.253 L7.575,32.774 L6.722,34.335 L5.903,35.934 L5.12,37.574 L4.376,39.257 L3.67,40.984 L3.004,42.756 L2.382,44.576 L1.804,46.447 L1.274,48.371 L0.794,50.352 L0.368,52.394 L0,54.5 L0,54.5" fill="none" stroke-width="1" stroke-dasharray="none"/><g><g stroke-dasharray="none"><path d="M60.333,53.5L62.333,53.5L62.333,55.5L60.333,55.5z" stroke-width="0" fill="none"/></g></g></g></g></g></g></g></g><g width="37.071" height="26" transform="scale(1,1) translate(639.333,213.333)"><g stroke="#000000" opacity="1" stroke-width="0" stroke-dasharray="none" width="37.071" height="26" transform="scale(1,1) translate(0,0)" fill="none" stroke-opacity="1"><rect width="37.071" height="26"/></g><g width="37.070987701416016" height="26" transform="scale(1,1) translate(0,0)"><text width="37.070987701416016" height="24.999998092651367" transform="scale(1,1) translate(0,0.5000009536743164)" xml:space="preserve"><tspan xml:space="preserve" text-rendering="optimizeSpeed" font-size="22.22222222222222" font-weight="normal" font-style="normal" fill="#000000" opacity="1" x="0" text-anchor="start" y="19.792" textLength="37.070987701416016" style="font-family: Arial, Helvetica Neue, Helvetica, sans-serif;">100</tspan></text></g></g><g width="24.714" height="26" transform="scale(1,1) translate(1230.833,209)"><g stroke="#000000" opacity="1" stroke-width="0" stroke-dasharray="none" width="24.714" height="26" transform="scale(1,1) translate(0,0)" fill="none" stroke-opacity="1"><rect width="24.714" height="26"/></g><g width="24.713991165161133" height="26" transform="scale(1,1) translate(0,0)"><text width="24.713991165161133" height="24.999998092651367" transform="scale(1,1) translate(0,0.5000009536743164)" xml:space="preserve"><tspan xml:space="preserve" text-rendering="optimizeSpeed" font-size="22.22222222222222" font-weight="normal" font-style="normal" fill="#000000" opacity="1" x="0" text-anchor="start" y="19.792" textLength="24.713991165161133" style="font-family: Arial, Helvetica Neue, Helvetica, sans-serif;">70</tspan></text></g></g><g width="65.167" height="68" transform="scale(1,1) translate(1204.833,344.5)"><g width="65.167" height="68"><g transform="scale(0.5178821187220293,0.9577464745850787) translate(0,0)"><g><g width="122.833" height="14.5" transform="scale(1,1) translate(1,56.5)"><g stroke="#BFBFBF" opacity="1" stroke-width="0" stroke-dasharray="none" width="122.833" height="14.5" transform="scale(1,1) translate(0,0)" fill="#FFFFFF" fill-opacity="1" stroke-opacity="1"><rect width="122.833" height="14.5"/></g></g><g width="61.333" height="54.5" transform="scale(1,1) translate(0.5,0.5)"><g transform="scale(1,1) translate(0,0)" fill="#000000" stroke="#000000" stroke-opacity="1"><path d="M0,54.5 L0,0 L0,0 L2.101,0.157 L4.148,0.374 L6.144,0.648 L8.093,0.976 L9.996,1.355 L11.857,1.781 L13.677,2.254 L15.459,2.77 L17.202,3.329 L18.91,3.928 L20.583,4.566 L22.221,5.243 L23.827,5.957 L25.401,6.706 L26.943,7.492 L28.455,8.311 L29.936,9.165 L31.388,10.052 L32.811,10.972 L34.204,11.925 L35.569,12.91 L36.905,13.927 L38.213,14.976 L39.493,16.057 L40.745,17.169 L41.968,18.313 L43.164,19.488 L44.331,20.696 L45.469,21.935 L46.579,23.207 L47.66,24.511 L48.712,25.849 L49.734,27.22 L50.726,28.624 L51.687,30.064 L52.616,31.538 L53.514,33.049 L54.379,34.597 L55.209,36.183 L56.005,37.808 L56.765,39.474 L57.487,41.182 L58.17,42.934 L58.813,44.732 L59.412,46.578 L59.967,48.475 L60.474,50.425 L60.931,52.432 L61.333,54.5 L61.333,54.5" fill="none" stroke-width="1" stroke-dasharray="none"/><g><g stroke-dasharray="none"><path d="M-1,53.5L1,53.5L1,55.5L-1,55.5z" stroke-width="0" fill="none"/></g></g></g></g><g width="61.333" height="54.5" transform="scale(1,1) translate(62,0.5)"><g transform="scale(1,1) translate(0,0)" fill="#000000" stroke="#000000" stroke-opacity="1"><path d="M61.333,54.5 L61.333,0 L61.333,0 L59.198,0.118 L57.121,0.301 L55.097,0.545 L53.124,0.845 L51.198,1.199 L49.317,1.603 L47.479,2.055 L45.682,2.553 L43.923,3.095 L42.202,3.679 L40.517,4.304 L38.868,4.968 L37.252,5.671 L35.67,6.411 L34.12,7.187 L32.601,7.999 L31.114,8.846 L29.657,9.728 L28.23,10.643 L26.833,11.592 L25.465,12.574 L24.127,13.588 L22.818,14.635 L21.537,15.715 L20.285,16.828 L19.062,17.972 L17.869,19.149 L16.704,20.359 L15.568,21.602 L14.461,22.878 L13.385,24.187 L12.338,25.53 L11.322,26.908 L10.337,28.32 L9.384,29.768 L8.463,31.253 L7.575,32.774 L6.722,34.335 L5.903,35.934 L5.12,37.574 L4.376,39.257 L3.67,40.984 L3.004,42.756 L2.382,44.576 L1.804,46.447 L1.274,48.371 L0.794,50.352 L0.368,52.394 L0,54.5 L0,54.5" fill="none" stroke-width="1" stroke-dasharray="none"/><g><g stroke-dasharray="none"><path d="M60.333,53.5L62.333,53.5L62.333,55.5L60.333,55.5z" stroke-width="0" fill="none"/></g></g></g></g></g></g></g></g><g width="65.333" height="68" transform="scale(1,1) translate(1548.833,344.5)"><g width="65.333" height="68"><g transform="scale(0.519206625419528,0.9577464745850787) translate(0,0)"><g><g width="122.833" height="14.5" transform="scale(1,1) translate(1,56.5)"><g stroke="#BFBFBF" opacity="1" stroke-width="0" stroke-dasharray="none" width="122.833" height="14.5" transform="scale(1,1) translate(0,0)" fill="#FFFFFF" fill-opacity="1" stroke-opacity="1"><rect width="122.833" height="14.5"/></g></g><g width="61.333" height="54.5" transform="scale(1,1) translate(0.5,0.5)"><g transform="scale(1,1) translate(0,0)" fill="#000000" stroke="#000000" stroke-opacity="1"><path d="M0,54.5 L0,0 L0,0 L2.101,0.157 L4.148,0.374 L6.144,0.648 L8.093,0.976 L9.996,1.355 L11.857,1.781 L13.677,2.254 L15.459,2.77 L17.202,3.329 L18.91,3.928 L20.583,4.566 L22.221,5.243 L23.827,5.957 L25.401,6.706 L26.943,7.492 L28.455,8.311 L29.936,9.165 L31.388,10.052 L32.811,10.972 L34.204,11.925 L35.569,12.91 L36.905,13.927 L38.213,14.976 L39.493,16.057 L40.745,17.169 L41.968,18.313 L43.164,19.488 L44.331,20.696 L45.469,21.935 L46.579,23.207 L47.66,24.511 L48.712,25.849 L49.734,27.22 L50.726,28.624 L51.687,30.064 L52.616,31.538 L53.514,33.049 L54.379,34.597 L55.209,36.183 L56.005,37.808 L56.765,39.474 L57.487,41.182 L58.17,42.934 L58.813,44.732 L59.412,46.578 L59.967,48.475 L60.474,50.425 L60.931,52.432 L61.333,54.5 L61.333,54.5" fill="none" stroke-width="1" stroke-dasharray="none"/><g><g stroke-dasharray="none"><path d="M-1,53.5L1,53.5L1,55.5L-1,55.5z" stroke-width="0" fill="none"/></g></g></g></g><g width="61.333" height="54.5" transform="scale(1,1) translate(62,0.5)"><g transform="scale(1,1) translate(0,0)" fill="#000000" stroke="#000000" stroke-opacity="1"><path d="M61.333,54.5 L61.333,0 L61.333,0 L59.198,0.118 L57.121,0.301 L55.097,0.545 L53.124,0.845 L51.198,1.199 L49.317,1.603 L47.479,2.055 L45.682,2.553 L43.923,3.095 L42.202,3.679 L40.517,4.304 L38.868,4.968 L37.252,5.671 L35.67,6.411 L34.12,7.187 L32.601,7.999 L31.114,8.846 L29.657,9.728 L28.23,10.643 L26.833,11.592 L25.465,12.574 L24.127,13.588 L22.818,14.635 L21.537,15.715 L20.285,16.828 L19.062,17.972 L17.869,19.149 L16.704,20.359 L15.568,21.602 L14.461,22.878 L13.385,24.187 L12.338,25.53 L11.322,26.908 L10.337,28.32 L9.384,29.768 L8.463,31.253 L7.575,32.774 L6.722,34.335 L5.903,35.934 L5.12,37.574 L4.376,39.257 L3.67,40.984 L3.004,42.756 L2.382,44.576 L1.804,46.447 L1.274,48.371 L0.794,50.352 L0.368,52.394 L0,54.5 L0,54.5" fill="none" stroke-width="1" stroke-dasharray="none"/><g><g stroke-dasharray="none"><path d="M60.333,53.5L62.333,53.5L62.333,55.5L60.333,55.5z" stroke-width="0" fill="none"/></g></g></g></g></g></g></g></g><g width="65.167" height="68" transform="scale(1,1) translate(1728.167,344.5)"><g width="65.167" height="68"><g transform="scale(0.5178821187220293,0.9577464745850787) translate(0,0)"><g><g width="122.833" height="14.5" transform="scale(1,1) translate(1,56.5)"><g stroke="#BFBFBF" opacity="1" stroke-width="0" stroke-dasharray="none" width="122.833" height="14.5" transform="scale(1,1) translate(0,0)" fill="#FFFFFF" fill-opacity="1" stroke-opacity="1"><rect width="122.833" height="14.5"/></g></g><g width="61.333" height="54.5" transform="scale(1,1) translate(0.5,0.5)"><g transform="scale(1,1) translate(0,0)" fill="#000000" stroke="#000000" stroke-opacity="1"><path d="M0,54.5 L0,0 L0,0 L2.101,0.157 L4.148,0.374 L6.144,0.648 L8.093,0.976 L9.996,1.355 L11.857,1.781 L13.677,2.254 L15.459,2.77 L17.202,3.329 L18.91,3.928 L20.583,4.566 L22.221,5.243 L23.827,5.957 L25.401,6.706 L26.943,7.492 L28.455,8.311 L29.936,9.165 L31.388,10.052 L32.811,10.972 L34.204,11.925 L35.569,12.91 L36.905,13.927 L38.213,14.976 L39.493,16.057 L40.745,17.169 L41.968,18.313 L43.164,19.488 L44.331,20.696 L45.469,21.935 L46.579,23.207 L47.66,24.511 L48.712,25.849 L49.734,27.22 L50.726,28.624 L51.687,30.064 L52.616,31.538 L53.514,33.049 L54.379,34.597 L55.209,36.183 L56.005,37.808 L56.765,39.474 L57.487,41.182 L58.17,42.934 L58.813,44.732 L59.412,46.578 L59.967,48.475 L60.474,50.425 L60.931,52.432 L61.333,54.5 L61.333,54.5" fill="none" stroke-width="1" stroke-dasharray="none"/><g><g stroke-dasharray="none"><path d="M-1,53.5L1,53.5L1,55.5L-1,55.5z" stroke-width="0" fill="none"/></g></g></g></g><g width="61.333" height="54.5" transform="scale(1,1) translate(62,0.5)"><g transform="scale(1,1) translate(0,0)" fill="#000000" stroke="#000000" stroke-opacity="1"><path d="M61.333,54.5 L61.333,0 L61.333,0 L59.198,0.118 L57.121,0.301 L55.097,0.545 L53.124,0.845 L51.198,1.199 L49.317,1.603 L47.479,2.055 L45.682,2.553 L43.923,3.095 L42.202,3.679 L40.517,4.304 L38.868,4.968 L37.252,5.671 L35.67,6.411 L34.12,7.187 L32.601,7.999 L31.114,8.846 L29.657,9.728 L28.23,10.643 L26.833,11.592 L25.465,12.574 L24.127,13.588 L22.818,14.635 L21.537,15.715 L20.285,16.828 L19.062,17.972 L17.869,19.149 L16.704,20.359 L15.568,21.602 L14.461,22.878 L13.385,24.187 L12.338,25.53 L11.322,26.908 L10.337,28.32 L9.384,29.768 L8.463,31.253 L7.575,32.774 L6.722,34.335 L5.903,35.934 L5.12,37.574 L4.376,39.257 L3.67,40.984 L3.004,42.756 L2.382,44.576 L1.804,46.447 L1.274,48.371 L0.794,50.352 L0.368,52.394 L0,54.5 L0,54.5" fill="none" stroke-width="1" stroke-dasharray="none"/><g><g stroke-dasharray="none"><path d="M60.333,53.5L62.333,53.5L62.333,55.5L60.333,55.5z" stroke-width="0" fill="none"/></g></g></g></g></g></g></g></g><g width="24.714" height="26" transform="scale(1,1) translate(1480.667,213.333)"><g stroke="#000000" opacity="1" stroke-width="0" stroke-dasharray="none" width="24.714" height="26" transform="scale(1,1) translate(0,0)" fill="none" stroke-opacity="1"><rect width="24.714" height="26"/></g><g width="24.713991165161133" height="26" transform="scale(1,1) translate(0,0)"><text width="24.713991165161133" height="24.999998092651367" transform="scale(1,1) translate(0,0.5000009536743164)" xml:space="preserve"><tspan xml:space="preserve" text-rendering="optimizeSpeed" font-size="22.22222222222222" font-weight="normal" font-style="normal" fill="#000000" opacity="1" x="0" text-anchor="start" y="19.792" textLength="24.713991165161133" style="font-family: Arial, Helvetica Neue, Helvetica, sans-serif;">60</tspan></text></g></g><g width="24.714" height="26" transform="scale(1,1) translate(1823.5,210.167)"><g stroke="#000000" opacity="1" stroke-width="0" stroke-dasharray="none" width="24.714" height="26" transform="scale(1,1) translate(0,0)" fill="none" stroke-opacity="1"><rect width="24.714" height="26"/></g><g width="24.713991165161133" height="26" transform="scale(1,1) translate(0,0)"><text width="24.713991165161133" height="24.999998092651367" transform="scale(1,1) translate(0,0.5000009536743164)" xml:space="preserve"><tspan xml:space="preserve" text-rendering="optimizeSpeed" font-size="22.22222222222222" font-weight="normal" font-style="normal" fill="#000000" opacity="1" x="0" text-anchor="start" y="19.792" textLength="24.713991165161133" style="font-family: Arial, Helvetica Neue, Helvetica, sans-serif;">55</tspan></text></g></g><g width="56" height="56" transform="rotate(90,2037.5,94.833) scale(1,1) translate(2009.5,66.833)"><g width="56" height="56"><g transform="scale(0.9572652693741202,0.954654018032965) translate(0,0)"><g><g width="56.5" height="43.993" transform="scale(1,1) translate(0.5,0.5)"><g transform="scale(1,1) translate(0,0)" fill="#000000" stroke="#000000" stroke-opacity="1"><path d="M56.5,43.993 L56.5,43.993 L56.392,41.736 L56.187,39.609 L55.897,37.594 L55.534,35.676 L55.106,33.845 L54.619,32.092 L54.079,30.41 L53.49,28.793 L52.855,27.236 L52.178,25.736 L51.461,24.29 L50.705,22.893 L49.914,21.545 L49.088,20.244 L48.228,18.986 L47.337,17.771 L46.414,16.598 L45.46,15.465 L44.477,14.371 L43.465,13.317 L42.424,12.3 L41.355,11.322 L40.258,10.38 L39.132,9.476 L37.979,8.608 L36.798,7.778 L35.59,6.985 L34.353,6.229 L33.088,5.511 L31.794,4.831 L30.471,4.189 L29.118,3.587 L27.734,3.026 L26.32,2.506 L24.873,2.029 L23.393,1.596 L21.879,1.21 L20.328,0.871 L18.739,0.583 L17.11,0.348 L15.439,0.17 L13.722,0.052 L11.956,0 L10.136,0.019 L8.258,0.115 L6.315,0.298 L4.299,0.578 L2.199,0.97 L0,1.493 L0,1.493 L0,43.326" fill="none" stroke-width="1" stroke-dasharray="none"/><g><g stroke-dasharray="none"><path d="M55.5,42.993L57.5,42.993L57.5,44.993L55.5,44.993z" stroke-width="0" fill="none"/></g></g></g></g><g width="56.833" height="14.167" transform="scale(1,1) translate(0.167,44.493)"><g stroke="#BFBFBF" opacity="1" stroke-width="0" stroke-dasharray="none" width="56.833" height="14.167" transform="scale(1,1) translate(0,0)" fill="#FFFFFF" fill-opacity="1" stroke-opacity="1"><rect width="56.833" height="14.167"/></g></g></g></g></g></g><g width="56" height="56" transform="rotate(270,1995.167,340) scale(1,1) translate(1967.167,312)"><g width="56" height="56"><g transform="scale(0.9572647491922951,0.9672350500339076) translate(0,0)"><g><g width="56.5" height="43.897" transform="scale(1,1) translate(0.5,0.5)"><g transform="scale(1,1) translate(0,0)" fill="#000000" stroke="#000000" stroke-opacity="1"><path d="M0,43.897 L0,43.897 L0.126,41.664 L0.346,39.557 L0.648,37.558 L1.022,35.654 L1.459,33.835 L1.953,32.092 L2.5,30.418 L3.094,28.809 L3.734,27.259 L4.416,25.765 L5.137,24.324 L5.896,22.932 L6.691,21.588 L7.519,20.29 L8.381,19.035 L9.275,17.823 L10.2,16.652 L11.154,15.521 L12.139,14.43 L13.152,13.377 L14.194,12.361 L15.263,11.383 L16.361,10.442 L17.487,9.538 L18.64,8.671 L19.82,7.84 L21.029,7.046 L22.265,6.29 L23.529,5.57 L24.822,4.889 L26.144,4.246 L27.495,3.642 L28.877,3.078 L30.289,2.556 L31.734,2.076 L33.211,1.639 L34.722,1.249 L36.27,0.905 L37.855,0.612 L39.479,0.371 L41.145,0.186 L42.857,0.061 L44.616,0 L46.428,0.008 L48.297,0.093 L50.23,0.262 L52.234,0.526 L54.32,0.899 L56.5,1.397 L56.5,1.397 L56.5,43.23" fill="none" stroke-width="1" stroke-dasharray="none"/><g><g stroke-dasharray="none"><path d="M-1,42.897L1,42.897L1,44.897L-1,44.897z" stroke-width="0" fill="none"/></g></g></g></g><g width="56.833" height="14.167" transform="scale(1,1) translate(0.167,43.73)"><g stroke="#BFBFBF" opacity="1" stroke-width="0" stroke-dasharray="none" width="56.833" height="14.167" transform="scale(1,1) translate(0,0)" fill="#FFFFFF" fill-opacity="1" stroke-opacity="1"><rect width="56.833" height="14.167"/></g></g></g></g></g></g><g width="65.167" height="68" transform="scale(1,1) translate(2137.333,344.5)"><g width="65.167" height="68"><g transform="scale(0.5178821187220293,0.9577464745850787) translate(0,0)"><g><g width="122.833" height="14.5" transform="scale(1,1) translate(1,56.5)"><g stroke="#BFBFBF" opacity="1" stroke-width="0" stroke-dasharray="none" width="122.833" height="14.5" transform="scale(1,1) translate(0,0)" fill="#FFFFFF" fill-opacity="1" stroke-opacity="1"><rect width="122.833" height="14.5"/></g></g><g width="61.333" height="54.5" transform="scale(1,1) translate(0.5,0.5)"><g transform="scale(1,1) translate(0,0)" fill="#000000" stroke="#000000" stroke-opacity="1"><path d="M0,54.5 L0,0 L0,0 L2.101,0.157 L4.148,0.374 L6.144,0.648 L8.093,0.976 L9.996,1.355 L11.857,1.781 L13.677,2.254 L15.459,2.77 L17.202,3.329 L18.91,3.928 L20.583,4.566 L22.221,5.243 L23.827,5.957 L25.401,6.706 L26.943,7.492 L28.455,8.311 L29.936,9.165 L31.388,10.052 L32.811,10.972 L34.204,11.925 L35.569,12.91 L36.905,13.927 L38.213,14.976 L39.493,16.057 L40.745,17.169 L41.968,18.313 L43.164,19.488 L44.331,20.696 L45.469,21.935 L46.579,23.207 L47.66,24.511 L48.712,25.849 L49.734,27.22 L50.726,28.624 L51.687,30.064 L52.616,31.538 L53.514,33.049 L54.379,34.597 L55.209,36.183 L56.005,37.808 L56.765,39.474 L57.487,41.182 L58.17,42.934 L58.813,44.732 L59.412,46.578 L59.967,48.475 L60.474,50.425 L60.931,52.432 L61.333,54.5 L61.333,54.5" fill="none" stroke-width="1" stroke-dasharray="none"/><g><g stroke-dasharray="none"><path d="M-1,53.5L1,53.5L1,55.5L-1,55.5z" stroke-width="0" fill="none"/></g></g></g></g><g width="61.333" height="54.5" transform="scale(1,1) translate(62,0.5)"><g transform="scale(1,1) translate(0,0)" fill="#000000" stroke="#000000" stroke-opacity="1"><path d="M61.333,54.5 L61.333,0 L61.333,0 L59.198,0.118 L57.121,0.301 L55.097,0.545 L53.124,0.845 L51.198,1.199 L49.317,1.603 L47.479,2.055 L45.682,2.553 L43.923,3.095 L42.202,3.679 L40.517,4.304 L38.868,4.968 L37.252,5.671 L35.67,6.411 L34.12,7.187 L32.601,7.999 L31.114,8.846 L29.657,9.728 L28.23,10.643 L26.833,11.592 L25.465,12.574 L24.127,13.588 L22.818,14.635 L21.537,15.715 L20.285,16.828 L19.062,17.972 L17.869,19.149 L16.704,20.359 L15.568,21.602 L14.461,22.878 L13.385,24.187 L12.338,25.53 L11.322,26.908 L10.337,28.32 L9.384,29.768 L8.463,31.253 L7.575,32.774 L6.722,34.335 L5.903,35.934 L5.12,37.574 L4.376,39.257 L3.67,40.984 L3.004,42.756 L2.382,44.576 L1.804,46.447 L1.274,48.371 L0.794,50.352 L0.368,52.394 L0,54.5 L0,54.5" fill="none" stroke-width="1" stroke-dasharray="none"/><g><g stroke-dasharray="none"><path d="M60.333,53.5L62.333,53.5L62.333,55.5L60.333,55.5z" stroke-width="0" fill="none"/></g></g></g></g></g></g></g></g><g width="24.714" height="26" transform="scale(1,1) translate(2042.833,330.5)"><g stroke="#000000" opacity="1" stroke-width="0" stroke-dasharray="none" width="24.714" height="26" transform="scale(1,1) translate(0,0)" fill="none" stroke-opacity="1"><rect width="24.714" height="26"/></g><g width="24.713991165161133" height="26" transform="scale(1,1) translate(0,0)"><text width="24.713991165161133" height="24.999998092651367" transform="scale(1,1) translate(0,0.5000009536743164)" xml:space="preserve"><tspan xml:space="preserve" text-rendering="optimizeSpeed" font-size="22.22222222222222" font-weight="normal" font-style="normal" fill="#000000" opacity="1" x="0" text-anchor="start" y="19.792" textLength="24.713991165161133" style="font-family: Arial, Helvetica Neue, Helvetica, sans-serif;">52</tspan></text></g></g><g width="24.714" height="26" transform="scale(1,1) translate(2163.333,209)"><g stroke="#000000" opacity="1" stroke-width="0" stroke-dasharray="none" width="24.714" height="26" transform="scale(1,1) translate(0,0)" fill="none" stroke-opacity="1"><rect width="24.714" height="26"/></g><g width="24.713991165161133" height="26" transform="scale(1,1) translate(0,0)"><text width="24.713991165161133" height="24.999998092651367" transform="scale(1,1) translate(0,0.5000009536743164)" xml:space="preserve"><tspan xml:space="preserve" text-rendering="optimizeSpeed" font-size="22.22222222222222" font-weight="normal" font-style="normal" fill="#000000" opacity="1" x="0" text-anchor="start" y="19.792" textLength="24.713991165161133" style="font-family: Arial, Helvetica Neue, Helvetica, sans-serif;">50</tspan></text></g></g><g width="24.714" height="26" transform="scale(1,1) translate(2362.333,74.333)"><g stroke="#000000" opacity="1" stroke-width="0" stroke-dasharray="none" width="24.714" height="26" transform="scale(1,1) translate(0,0)" fill="none" stroke-opacity="1"><rect width="24.714" height="26"/></g><g width="24.713991165161133" height="26" transform="scale(1,1) translate(0,0)"><text width="24.713991165161133" height="24.999998092651367" transform="scale(1,1) translate(0,0.5000009536743164)" xml:space="preserve"><tspan xml:space="preserve" text-rendering="optimizeSpeed" font-size="22.22222222222222" font-weight="normal" font-style="normal" fill="#000000" opacity="1" x="0" text-anchor="start" y="19.792" textLength="24.713991165161133" style="font-family: Arial, Helvetica Neue, Helvetica, sans-serif;">25</tspan></text></g></g><g width="24.714" height="26" transform="scale(1,1) translate(2359.167,251.667)"><g stroke="#000000" opacity="1" stroke-width="0" stroke-dasharray="none" width="24.714" height="26" transform="scale(1,1) translate(0,0)" fill="none" stroke-opacity="1"><rect width="24.714" height="26"/></g><g width="24.713991165161133" height="26" transform="scale(1,1) translate(0,0)"><text width="24.713991165161133" height="24.999998092651367" transform="scale(1,1) translate(0,0.5000009536743164)" xml:space="preserve"><tspan xml:space="preserve" text-rendering="optimizeSpeed" font-size="22.22222222222222" font-weight="normal" font-style="normal" fill="#000000" opacity="1" x="0" text-anchor="start" y="19.792" textLength="24.713991165161133" style="font-family: Arial, Helvetica Neue, Helvetica, sans-serif;">22</tspan></text></g></g><g width="56" height="56" transform="rotate(90,2438,87.833) scale(1,1) translate(2410,59.833)"><g width="56" height="56"><g transform="scale(0.9572652693741202,0.954654018032965) translate(0,0)"><g><g width="56.5" height="43.993" transform="scale(1,1) translate(0.5,0.5)"><g transform="scale(1,1) translate(0,0)" fill="#000000" stroke="#000000" stroke-opacity="1"><path d="M56.5,43.993 L56.5,43.993 L56.392,41.736 L56.187,39.609 L55.897,37.594 L55.534,35.676 L55.106,33.845 L54.619,32.092 L54.079,30.41 L53.49,28.793 L52.855,27.236 L52.178,25.736 L51.461,24.29 L50.705,22.893 L49.914,21.545 L49.088,20.244 L48.228,18.986 L47.337,17.771 L46.414,16.598 L45.46,15.465 L44.477,14.371 L43.465,13.317 L42.424,12.3 L41.355,11.322 L40.258,10.38 L39.132,9.476 L37.979,8.608 L36.798,7.778 L35.59,6.985 L34.353,6.229 L33.088,5.511 L31.794,4.831 L30.471,4.189 L29.118,3.587 L27.734,3.026 L26.32,2.506 L24.873,2.029 L23.393,1.596 L21.879,1.21 L20.328,0.871 L18.739,0.583 L17.11,0.348 L15.439,0.17 L13.722,0.052 L11.956,0 L10.136,0.019 L8.258,0.115 L6.315,0.298 L4.299,0.578 L2.199,0.97 L0,1.493 L0,1.493 L0,43.326" fill="none" stroke-width="1" stroke-dasharray="none"/><g><g stroke-dasharray="none"><path d="M55.5,42.993L57.5,42.993L57.5,44.993L55.5,44.993z" stroke-width="0" fill="none"/></g></g></g></g><g width="56.833" height="14.167" transform="scale(1,1) translate(0.167,44.493)"><g stroke="#BFBFBF" opacity="1" stroke-width="0" stroke-dasharray="none" width="56.833" height="14.167" transform="scale(1,1) translate(0,0)" fill="#FFFFFF" fill-opacity="1" stroke-opacity="1"><rect width="56.833" height="14.167"/></g></g></g></g></g></g><g width="56" height="56" transform="rotate(89.9,2438.667,292.333) scale(1,1) translate(2410.667,264.333)"><g width="56" height="56"><g transform="scale(0.9572647491922951,0.9672350500339076) translate(0,0)"><g><g width="56.5" height="43.897" transform="scale(1,1) translate(0.5,0.5)"><g transform="scale(1,1) translate(0,0)" fill="#000000" stroke="#000000" stroke-opacity="1"><path d="M0,43.897 L0,43.897 L0.126,41.664 L0.346,39.557 L0.648,37.558 L1.022,35.654 L1.459,33.835 L1.953,32.092 L2.5,30.418 L3.094,28.809 L3.734,27.259 L4.416,25.765 L5.137,24.324 L5.896,22.932 L6.691,21.588 L7.519,20.29 L8.381,19.035 L9.275,17.823 L10.2,16.652 L11.154,15.521 L12.139,14.43 L13.152,13.377 L14.194,12.361 L15.263,11.383 L16.361,10.442 L17.487,9.538 L18.64,8.671 L19.82,7.84 L21.029,7.046 L22.265,6.29 L23.529,5.57 L24.822,4.889 L26.144,4.246 L27.495,3.642 L28.877,3.078 L30.289,2.556 L31.734,2.076 L33.211,1.639 L34.722,1.249 L36.27,0.905 L37.855,0.612 L39.479,0.371 L41.145,0.186 L42.857,0.061 L44.616,0 L46.428,0.008 L48.297,0.093 L50.23,0.262 L52.234,0.526 L54.32,0.899 L56.5,1.397 L56.5,1.397 L56.5,43.23" fill="none" stroke-width="1" stroke-dasharray="none"/><g><g stroke-dasharray="none"><path d="M-1,42.897L1,42.897L1,44.897L-1,44.897z" stroke-width="0" fill="none"/></g></g></g></g><g width="56.833" height="14.167" transform="scale(1,1) translate(0.167,43.73)"><g stroke="#BFBFBF" opacity="1" stroke-width="0" stroke-dasharray="none" width="56.833" height="14.167" transform="scale(1,1) translate(0,0)" fill="#FFFFFF" fill-opacity="1" stroke-opacity="1"><rect width="56.833" height="14.167"/></g></g></g></g></g></g><g width="60.833" height="68" transform="scale(1,1) translate(2417.167,344.5)"><g width="60.833" height="68"><g transform="scale(0.48344494458706055,0.9577464745850787) translate(0,0)"><g><g width="122.833" height="14.5" transform="scale(1,1) translate(1,56.5)"><g stroke="#BFBFBF" opacity="1" stroke-width="0" stroke-dasharray="none" width="122.833" height="14.5" transform="scale(1,1) translate(0,0)" fill="#FFFFFF" fill-opacity="1" stroke-opacity="1"><rect width="122.833" height="14.5"/></g></g><g width="61.333" height="54.5" transform="scale(1,1) translate(0.5,0.5)"><g transform="scale(1,1) translate(0,0)" fill="#000000" stroke="#000000" stroke-opacity="1"><path d="M0,54.5 L0,0 L0,0 L2.101,0.157 L4.148,0.374 L6.144,0.648 L8.093,0.976 L9.996,1.355 L11.857,1.781 L13.677,2.254 L15.459,2.77 L17.202,3.329 L18.91,3.928 L20.583,4.566 L22.221,5.243 L23.827,5.957 L25.401,6.706 L26.943,7.492 L28.455,8.311 L29.936,9.165 L31.388,10.052 L32.811,10.972 L34.204,11.925 L35.569,12.91 L36.905,13.927 L38.213,14.976 L39.493,16.057 L40.745,17.169 L41.968,18.313 L43.164,19.488 L44.331,20.696 L45.469,21.935 L46.579,23.207 L47.66,24.511 L48.712,25.849 L49.734,27.22 L50.726,28.624 L51.687,30.064 L52.616,31.538 L53.514,33.049 L54.379,34.597 L55.209,36.183 L56.005,37.808 L56.765,39.474 L57.487,41.182 L58.17,42.934 L58.813,44.732 L59.412,46.578 L59.967,48.475 L60.474,50.425 L60.931,52.432 L61.333,54.5 L61.333,54.5" fill="none" stroke-width="1" stroke-dasharray="none"/><g><g stroke-dasharray="none"><path d="M-1,53.5L1,53.5L1,55.5L-1,55.5z" stroke-width="0" fill="none"/></g></g></g></g><g width="61.333" height="54.5" transform="scale(1,1) translate(62,0.5)"><g transform="scale(1,1) translate(0,0)" fill="#000000" stroke="#000000" stroke-opacity="1"><path d="M61.333,54.5 L61.333,0 L61.333,0 L59.198,0.118 L57.121,0.301 L55.097,0.545 L53.124,0.845 L51.198,1.199 L49.317,1.603 L47.479,2.055 L45.682,2.553 L43.923,3.095 L42.202,3.679 L40.517,4.304 L38.868,4.968 L37.252,5.671 L35.67,6.411 L34.12,7.187 L32.601,7.999 L31.114,8.846 L29.657,9.728 L28.23,10.643 L26.833,11.592 L25.465,12.574 L24.127,13.588 L22.818,14.635 L21.537,15.715 L20.285,16.828 L19.062,17.972 L17.869,19.149 L16.704,20.359 L15.568,21.602 L14.461,22.878 L13.385,24.187 L12.338,25.53 L11.322,26.908 L10.337,28.32 L9.384,29.768 L8.463,31.253 L7.575,32.774 L6.722,34.335 L5.903,35.934 L5.12,37.574 L4.376,39.257 L3.67,40.984 L3.004,42.756 L2.382,44.576 L1.804,46.447 L1.274,48.371 L0.794,50.352 L0.368,52.394 L0,54.5 L0,54.5" fill="none" stroke-width="1" stroke-dasharray="none"/><g><g stroke-dasharray="none"><path d="M60.333,53.5L62.333,53.5L62.333,55.5L60.333,55.5z" stroke-width="0" fill="none"/></g></g></g></g></g></g></g></g><g width="24.714" height="26" transform="scale(1,1) translate(2672.833,213.333)"><g stroke="#000000" opacity="1" stroke-width="0" stroke-dasharray="none" width="24.714" height="26" transform="scale(1,1) translate(0,0)" fill="none" stroke-opacity="1"><rect width="24.714" height="26"/></g><g width="24.713991165161133" height="26" transform="scale(1,1) translate(0,0)"><text width="24.713991165161133" height="24.999998092651367" transform="scale(1,1) translate(0,0.5000009536743164)" xml:space="preserve"><tspan xml:space="preserve" text-rendering="optimizeSpeed" font-size="22.22222222222222" font-weight="normal" font-style="normal" fill="#000000" opacity="1" x="0" text-anchor="start" y="19.792" textLength="24.713991165161133" style="font-family: Arial, Helvetica Neue, Helvetica, sans-serif;">20</tspan></text></g></g><g width="24.714" height="26" transform="scale(1,1) translate(1871.167,830.833)"><g stroke="#000000" opacity="1" stroke-width="0" stroke-dasharray="none" width="24.714" height="26" transform="scale(1,1) translate(0,0)" fill="none" stroke-opacity="1"><rect width="24.714" height="26"/></g><g width="24.713991165161133" height="26" transform="scale(1,1) translate(0,0)"><text width="24.713991165161133" height="24.999998092651367" transform="scale(1,1) translate(0,0.5000009536743164)" xml:space="preserve"><tspan xml:space="preserve" text-rendering="optimizeSpeed" font-size="22.22222222222222" font-weight="normal" font-style="normal" fill="#000000" opacity="1" x="0" text-anchor="start" y="19.792" textLength="24.713991165161133" style="font-family: Arial, Helvetica Neue, Helvetica, sans-serif;">37</tspan></text></g></g><g width="24.714" height="26" transform="scale(1,1) translate(2232.667,832.667)"><g stroke="#000000" opacity="1" stroke-width="0" stroke-dasharray="none" width="24.714" height="26" transform="scale(1,1) translate(0,0)" fill="none" stroke-opacity="1"><rect width="24.714" height="26"/></g><g width="24.713991165161133" height="26" transform="scale(1,1) translate(0,0)"><text width="24.713991165161133" height="24.999998092651367" transform="scale(1,1) translate(0,0.5000009536743164)" xml:space="preserve"><tspan xml:space="preserve" text-rendering="optimizeSpeed" font-size="22.22222222222222" font-weight="normal" font-style="normal" fill="#000000" opacity="1" x="0" text-anchor="start" y="19.792" textLength="24.713991165161133" style="font-family: Arial, Helvetica Neue, Helvetica, sans-serif;">33</tspan></text></g></g><g width="78.601" height="26" transform="scale(1,1) translate(2033.667,704.333)"><g stroke="#000000" opacity="1" stroke-width="0" stroke-dasharray="none" width="78.601" height="26" transform="scale(1,1) translate(0,0)" fill="none" stroke-opacity="1"><rect width="78.601" height="26"/></g><g width="78.6009292602539" height="26" transform="scale(1,1) translate(0,0)"><text width="78.6009292602539" height="24.999998092651367" transform="scale(1,1) translate(0,0.5000009536743164)" xml:space="preserve"><tspan xml:space="preserve" text-rendering="optimizeSpeed" font-size="22.22222222222222" font-weight="normal" font-style="normal" fill="#000000" opacity="1" x="0" text-anchor="start" y="19.792" textLength="78.6009292602539" style="font-family: Arial, Helvetica Neue, Helvetica, sans-serif;">STAIRS</tspan></text></g></g><g width="63.667" height="68" transform="rotate(270,1862.667,760.833) scale(1,1) translate(1830.833,726.833)"><g width="63.667" height="68"><g transform="scale(0.5059615584445402,0.9577464745850787) translate(0,0)"><g><g width="122.833" height="14.5" transform="scale(1,1) translate(1,56.5)"><g stroke="#BFBFBF" opacity="1" stroke-width="0" stroke-dasharray="none" width="122.833" height="14.5" transform="scale(1,1) translate(0,0)" fill="#FFFFFF" fill-opacity="1" stroke-opacity="1"><rect width="122.833" height="14.5"/></g></g><g width="61.333" height="54.5" transform="scale(1,1) translate(0.5,0.5)"><g transform="scale(1,1) translate(0,0)" fill="#000000" stroke="#000000" stroke-opacity="1"><path d="M0,54.5 L0,0 L0,0 L2.101,0.157 L4.148,0.374 L6.144,0.648 L8.093,0.976 L9.996,1.355 L11.857,1.781 L13.677,2.254 L15.459,2.77 L17.202,3.329 L18.91,3.928 L20.583,4.566 L22.221,5.243 L23.827,5.957 L25.401,6.706 L26.943,7.492 L28.455,8.311 L29.936,9.165 L31.388,10.052 L32.811,10.972 L34.204,11.925 L35.569,12.91 L36.905,13.927 L38.213,14.976 L39.493,16.057 L40.745,17.169 L41.968,18.313 L43.164,19.488 L44.331,20.696 L45.469,21.935 L46.579,23.207 L47.66,24.511 L48.712,25.849 L49.734,27.22 L50.726,28.624 L51.687,30.064 L52.616,31.538 L53.514,33.049 L54.379,34.597 L55.209,36.183 L56.005,37.808 L56.765,39.474 L57.487,41.182 L58.17,42.934 L58.813,44.732 L59.412,46.578 L59.967,48.475 L60.474,50.425 L60.931,52.432 L61.333,54.5 L61.333,54.5" fill="none" stroke-width="1" stroke-dasharray="none"/><g><g stroke-dasharray="none"><path d="M-1,53.5L1,53.5L1,55.5L-1,55.5z" stroke-width="0" fill="none"/></g></g></g></g><g width="61.333" height="54.5" transform="scale(1,1) translate(62,0.5)"><g transform="scale(1,1) translate(0,0)" fill="#000000" stroke="#000000" stroke-opacity="1"><path d="M61.333,54.5 L61.333,0 L61.333,0 L59.198,0.118 L57.121,0.301 L55.097,0.545 L53.124,0.845 L51.198,1.199 L49.317,1.603 L47.479,2.055 L45.682,2.553 L43.923,3.095 L42.202,3.679 L40.517,4.304 L38.868,4.968 L37.252,5.671 L35.67,6.411 L34.12,7.187 L32.601,7.999 L31.114,8.846 L29.657,9.728 L28.23,10.643 L26.833,11.592 L25.465,12.574 L24.127,13.588 L22.818,14.635 L21.537,15.715 L20.285,16.828 L19.062,17.972 L17.869,19.149 L16.704,20.359 L15.568,21.602 L14.461,22.878 L13.385,24.187 L12.338,25.53 L11.322,26.908 L10.337,28.32 L9.384,29.768 L8.463,31.253 L7.575,32.774 L6.722,34.335 L5.903,35.934 L5.12,37.574 L4.376,39.257 L3.67,40.984 L3.004,42.756 L2.382,44.576 L1.804,46.447 L1.274,48.371 L0.794,50.352 L0.368,52.394 L0,54.5 L0,54.5" fill="none" stroke-width="1" stroke-dasharray="none"/><g><g stroke-dasharray="none"><path d="M60.333,53.5L62.333,53.5L62.333,55.5L60.333,55.5z" stroke-width="0" fill="none"/></g></g></g></g></g></g></g></g><g width="63.167" height="68" transform="rotate(90,2279.083,670.667) scale(1,1) translate(2247.5,636.667)"><g width="63.167" height="68"><g transform="scale(0.5019880383520438,0.9577464745850787) translate(0,0)"><g><g width="122.833" height="14.5" transform="scale(1,1) translate(1,56.5)"><g stroke="#BFBFBF" opacity="1" stroke-width="0" stroke-dasharray="none" width="122.833" height="14.5" transform="scale(1,1) translate(0,0)" fill="#FFFFFF" fill-opacity="1" stroke-opacity="1"><rect width="122.833" height="14.5"/></g></g><g width="61.333" height="54.5" transform="scale(1,1) translate(0.5,0.5)"><g transform="scale(1,1) translate(0,0)" fill="#000000" stroke="#000000" stroke-opacity="1"><path d="M0,54.5 L0,0 L0,0 L2.101,0.157 L4.148,0.374 L6.144,0.648 L8.093,0.976 L9.996,1.355 L11.857,1.781 L13.677,2.254 L15.459,2.77 L17.202,3.329 L18.91,3.928 L20.583,4.566 L22.221,5.243 L23.827,5.957 L25.401,6.706 L26.943,7.492 L28.455,8.311 L29.936,9.165 L31.388,10.052 L32.811,10.972 L34.204,11.925 L35.569,12.91 L36.905,13.927 L38.213,14.976 L39.493,16.057 L40.745,17.169 L41.968,18.313 L43.164,19.488 L44.331,20.696 L45.469,21.935 L46.579,23.207 L47.66,24.511 L48.712,25.849 L49.734,27.22 L50.726,28.624 L51.687,30.064 L52.616,31.538 L53.514,33.049 L54.379,34.597 L55.209,36.183 L56.005,37.808 L56.765,39.474 L57.487,41.182 L58.17,42.934 L58.813,44.732 L59.412,46.578 L59.967,48.475 L60.474,50.425 L60.931,52.432 L61.333,54.5 L61.333,54.5" fill="none" stroke-width="1" stroke-dasharray="none"/><g><g stroke-dasharray="none"><path d="M-1,53.5L1,53.5L1,55.5L-1,55.5z" stroke-width="0" fill="none"/></g></g></g></g><g width="61.333" height="54.5" transform="scale(1,1) translate(62,0.5)"><g transform="scale(1,1) translate(0,0)" fill="#000000" stroke="#000000" stroke-opacity="1"><path d="M61.333,54.5 L61.333,0 L61.333,0 L59.198,0.118 L57.121,0.301 L55.097,0.545 L53.124,0.845 L51.198,1.199 L49.317,1.603 L47.479,2.055 L45.682,2.553 L43.923,3.095 L42.202,3.679 L40.517,4.304 L38.868,4.968 L37.252,5.671 L35.67,6.411 L34.12,7.187 L32.601,7.999 L31.114,8.846 L29.657,9.728 L28.23,10.643 L26.833,11.592 L25.465,12.574 L24.127,13.588 L22.818,14.635 L21.537,15.715 L20.285,16.828 L19.062,17.972 L17.869,19.149 L16.704,20.359 L15.568,21.602 L14.461,22.878 L13.385,24.187 L12.338,25.53 L11.322,26.908 L10.337,28.32 L9.384,29.768 L8.463,31.253 L7.575,32.774 L6.722,34.335 L5.903,35.934 L5.12,37.574 L4.376,39.257 L3.67,40.984 L3.004,42.756 L2.382,44.576 L1.804,46.447 L1.274,48.371 L0.794,50.352 L0.368,52.394 L0,54.5 L0,54.5" fill="none" stroke-width="1" stroke-dasharray="none"/><g><g stroke-dasharray="none"><path d="M60.333,53.5L62.333,53.5L62.333,55.5L60.333,55.5z" stroke-width="0" fill="none"/></g></g></g></g></g></g></g></g><g width="81.541" height="26" transform="scale(1,1) translate(2011.833,846.333)"><g stroke="#000000" opacity="1" stroke-width="0" stroke-dasharray="none" width="81.541" height="26" transform="scale(1,1) translate(0,0)" fill="none" stroke-opacity="1"><rect width="81.541" height="26"/></g><g width="81.54097747802734" height="26" transform="scale(1,1) translate(0,0)"><text width="81.54097747802734" height="24.999998092651367" transform="scale(1,1) translate(0,0.5000009536743164)" xml:space="preserve"><tspan xml:space="preserve" text-rendering="optimizeSpeed" font-size="22.22222222222222" font-weight="normal" font-style="normal" fill="#000000" opacity="1" x="0" text-anchor="start" y="19.792" textLength="81.54097747802734" style="font-family: Arial, Helvetica Neue, Helvetica, sans-serif;">189-198</tspan></text></g></g><g width="139" height="121.5" transform="scale(1,1) translate(1583.5,881.333)"><g transform="scale(1,1) translate(0,0)" fill="#FFFFFF" stroke="#000000" stroke-opacity="1" fill-opacity="1"><path d="M0,121.5 L0,0 L139,0 L139,121.5 L0,121.5 z" stroke-width="11.333" stroke-dasharray="none"/></g></g><g width="50.667" height="74.333" transform="scale(1,1) translate(1583.5,807)"><g transform="scale(1,1) translate(0,0)" fill="#FFFFFF" stroke="#000000" stroke-opacity="1" fill-opacity="1"><path d="M0,74.333 L0,0 L50.667,0 L50.667,74.333 L0,74.333 z" stroke-width="11.333" stroke-dasharray="none"/></g></g><g width="138.833" height="121.667" transform="scale(1,1) translate(1583.5,685.167)"><g transform="scale(1,1) translate(0,0)" fill="#FFFFFF" stroke="#000000" stroke-opacity="1" fill-opacity="1"><path d="M0,121.667 L0,0 L138.833,0 L138.833,121.667 L0,121.667 z" stroke-width="11.333" stroke-dasharray="none"/></g></g><g width="24.714" height="26" transform="scale(1,1) translate(1638.167,566.667)"><g stroke="#000000" opacity="1" stroke-width="0" stroke-dasharray="none" width="24.714" height="26" transform="scale(1,1) translate(0,0)" fill="#FFFFFF" fill-opacity="1" stroke-opacity="1"><rect width="24.714" height="26"/></g><g width="24.713991165161133" height="26" transform="scale(1,1) translate(0,0)"><text width="24.713991165161133" height="24.999998092651367" transform="scale(1,1) translate(0,0.5000009536743164)" xml:space="preserve"><tspan xml:space="preserve" text-rendering="optimizeSpeed" font-size="22.22222222222222" font-weight="normal" font-style="normal" fill="#000000" opacity="1" x="0" text-anchor="start" y="19.792" textLength="24.713991165161133" style="font-family: Arial, Helvetica Neue, Helvetica, sans-serif;">45</tspan></text></g></g><g width="24.714" height="26" transform="scale(1,1) translate(1638.167,735.333)"><g stroke="#000000" opacity="1" stroke-width="0" stroke-dasharray="none" width="24.714" height="26" transform="scale(1,1) translate(0,0)" fill="none" stroke-opacity="1"><rect width="24.714" height="26"/></g><g width="24.713991165161133" height="26" transform="scale(1,1) translate(0,0)"><text width="24.713991165161133" height="24.999998092651367" transform="scale(1,1) translate(0,0.5000009536743164)" xml:space="preserve"><tspan xml:space="preserve" text-rendering="optimizeSpeed" font-size="22.22222222222222" font-weight="normal" font-style="normal" fill="#000000" opacity="1" x="0" text-anchor="start" y="19.792" textLength="24.713991165161133" style="font-family: Arial, Helvetica Neue, Helvetica, sans-serif;">44</tspan></text></g></g><g width="24.714" height="26" transform="scale(1,1) translate(1596.5,829.5)"><g stroke="#000000" opacity="1" stroke-width="0" stroke-dasharray="none" width="24.714" height="26" transform="scale(1,1) translate(0,0)" fill="none" stroke-opacity="1"><rect width="24.714" height="26"/></g><g width="24.713991165161133" height="26" transform="scale(1,1) translate(0,0)"><text width="24.713991165161133" height="24.999998092651367" transform="scale(1,1) translate(0,0.5000009536743164)" xml:space="preserve"><tspan xml:space="preserve" text-rendering="optimizeSpeed" font-size="22.22222222222222" font-weight="normal" font-style="normal" fill="#000000" opacity="1" x="0" text-anchor="start" y="19.792" textLength="24.713991165161133" style="font-family: Arial, Helvetica Neue, Helvetica, sans-serif;">43</tspan></text></g></g><g width="24.714" height="26" transform="scale(1,1) translate(1638.167,928.167)"><g stroke="#000000" opacity="1" stroke-width="0" stroke-dasharray="none" width="24.714" height="26" transform="scale(1,1) translate(0,0)" fill="none" stroke-opacity="1"><rect width="24.714" height="26"/></g><g width="24.713991165161133" height="26" transform="scale(1,1) translate(0,0)"><text width="24.713991165161133" height="24.999998092651367" transform="scale(1,1) translate(0,0.5000009536743164)" xml:space="preserve"><tspan xml:space="preserve" text-rendering="optimizeSpeed" font-size="22.22222222222222" font-weight="normal" font-style="normal" fill="#000000" opacity="1" x="0" text-anchor="start" y="19.792" textLength="24.713991165161133" style="font-family: Arial, Helvetica Neue, Helvetica, sans-serif;">42</tspan></text></g></g><g width="63" height="68" transform="rotate(270,1696.167,632.5) scale(1,1) translate(1664.667,598.5)"><g width="63" height="68"><g transform="scale(0.5006635316545449,0.9577464745850787) translate(0,0)"><g><g width="122.833" height="14.5" transform="scale(1,1) translate(1,56.5)"><g stroke="#BFBFBF" opacity="1" stroke-width="0" stroke-dasharray="none" width="122.833" height="14.5" transform="scale(1,1) translate(0,0)" fill="#FFFFFF" fill-opacity="1" stroke-opacity="1"><rect width="122.833" height="14.5"/></g></g><g width="61.333" height="54.5" transform="scale(1,1) translate(0.5,0.5)"><g transform="scale(1,1) translate(0,0)" fill="#000000" stroke="#000000" stroke-opacity="1"><path d="M0,54.5 L0,0 L0,0 L2.101,0.157 L4.148,0.374 L6.144,0.648 L8.093,0.976 L9.996,1.355 L11.857,1.781 L13.677,2.254 L15.459,2.77 L17.202,3.329 L18.91,3.928 L20.583,4.566 L22.221,5.243 L23.827,5.957 L25.401,6.706 L26.943,7.492 L28.455,8.311 L29.936,9.165 L31.388,10.052 L32.811,10.972 L34.204,11.925 L35.569,12.91 L36.905,13.927 L38.213,14.976 L39.493,16.057 L40.745,17.169 L41.968,18.313 L43.164,19.488 L44.331,20.696 L45.469,21.935 L46.579,23.207 L47.66,24.511 L48.712,25.849 L49.734,27.22 L50.726,28.624 L51.687,30.064 L52.616,31.538 L53.514,33.049 L54.379,34.597 L55.209,36.183 L56.005,37.808 L56.765,39.474 L57.487,41.182 L58.17,42.934 L58.813,44.732 L59.412,46.578 L59.967,48.475 L60.474,50.425 L60.931,52.432 L61.333,54.5 L61.333,54.5" fill="none" stroke-width="1" stroke-dasharray="none"/><g><g stroke-dasharray="none"><path d="M-1,53.5L1,53.5L1,55.5L-1,55.5z" stroke-width="0" fill="none"/></g></g></g></g><g width="61.333" height="54.5" transform="scale(1,1) translate(62,0.5)"><g transform="scale(1,1) translate(0,0)" fill="#000000" stroke="#000000" stroke-opacity="1"><path d="M61.333,54.5 L61.333,0 L61.333,0 L59.198,0.118 L57.121,0.301 L55.097,0.545 L53.124,0.845 L51.198,1.199 L49.317,1.603 L47.479,2.055 L45.682,2.553 L43.923,3.095 L42.202,3.679 L40.517,4.304 L38.868,4.968 L37.252,5.671 L35.67,6.411 L34.12,7.187 L32.601,7.999 L31.114,8.846 L29.657,9.728 L28.23,10.643 L26.833,11.592 L25.465,12.574 L24.127,13.588 L22.818,14.635 L21.537,15.715 L20.285,16.828 L19.062,17.972 L17.869,19.149 L16.704,20.359 L15.568,21.602 L14.461,22.878 L13.385,24.187 L12.338,25.53 L11.322,26.908 L10.337,28.32 L9.384,29.768 L8.463,31.253 L7.575,32.774 L6.722,34.335 L5.903,35.934 L5.12,37.574 L4.376,39.257 L3.67,40.984 L3.004,42.756 L2.382,44.576 L1.804,46.447 L1.274,48.371 L0.794,50.352 L0.368,52.394 L0,54.5 L0,54.5" fill="none" stroke-width="1" stroke-dasharray="none"/><g><g stroke-dasharray="none"><path d="M60.333,53.5L62.333,53.5L62.333,55.5L60.333,55.5z" stroke-width="0" fill="none"/></g></g></g></g></g></g></g></g><g width="56" height="56" transform="rotate(90,1701.5,912.5) scale(1,1) translate(1673.5,884.5)"><g width="56" height="56"><g transform="scale(0.954540013312784,0.9783197491540453) translate(0,0)"><g><g width="56.667" height="43.908" transform="scale(1,1) translate(0.5,12.833)"><g transform="scale(1,1) translate(0,0)" fill="#000000" stroke="#000000" stroke-opacity="1"><path d="M56.667,0 L56.667,0 L56.536,2.235 L56.311,4.344 L56.004,6.345 L55.627,8.25 L55.186,10.072 L54.687,11.816 L54.137,13.492 L53.538,15.102 L52.894,16.654 L52.209,18.149 L51.484,19.592 L50.721,20.984 L49.923,22.329 L49.09,23.629 L48.225,24.884 L47.328,26.097 L46.4,27.269 L45.441,28.4 L44.453,29.492 L43.437,30.546 L42.391,31.562 L41.318,32.54 L40.217,33.481 L39.088,34.385 L37.932,35.252 L36.748,36.083 L35.536,36.877 L34.296,37.633 L33.028,38.352 L31.732,39.033 L30.407,39.676 L29.053,40.279 L27.668,40.842 L26.252,41.364 L24.805,41.843 L23.324,42.278 L21.81,42.668 L20.259,43.01 L18.671,43.302 L17.044,43.541 L15.374,43.725 L13.66,43.849 L11.898,43.908 L10.083,43.898 L8.212,43.812 L6.276,43.641 L4.27,43.375 L2.182,43 L0,42.5 L0,42.5 L0,0.5" fill="none" stroke-width="1" stroke-dasharray="none"/><g><g stroke-dasharray="none"><path d="M55.667,-1L57.667,-1L57.667,1L55.667,1z" stroke-width="0" fill="none"/></g></g></g></g><g width="57" height="14" transform="scale(1,1) translate(0.667,0)"><g stroke="#BFBFBF" opacity="1" stroke-width="0" stroke-dasharray="none" width="57" height="14" transform="scale(1,1) translate(0,0)" fill="#FFFFFF" fill-opacity="1" stroke-opacity="1"><rect width="57" height="14"/></g></g></g></g></g></g><g width="56" height="56" transform="rotate(90,1701.667,776.667) scale(1,1) translate(1673.667,748.667)"><g width="56" height="56"><g transform="scale(0.9518466879932131,0.9797575715697661) translate(0,0)"><g><g width="56.833" height="43.824" transform="scale(1,1) translate(0.5,12.833)"><g transform="scale(1,1) translate(0,0)" fill="#000000" stroke="#000000" stroke-opacity="1"><path d="M0,0 L0,0 L0.154,2.213 L0.398,4.305 L0.721,6.291 L1.113,8.185 L1.567,9.996 L2.077,11.732 L2.639,13.4 L3.247,15.005 L3.9,16.551 L4.593,18.041 L5.326,19.48 L6.096,20.869 L6.901,22.211 L7.739,23.508 L8.611,24.761 L9.514,25.972 L10.447,27.142 L11.411,28.272 L12.403,29.363 L13.425,30.415 L14.474,31.43 L15.552,32.408 L16.657,33.349 L17.789,34.253 L18.949,35.12 L20.136,35.951 L21.351,36.745 L22.593,37.502 L23.864,38.221 L25.162,38.903 L26.489,39.547 L27.845,40.152 L29.232,40.717 L30.648,41.24 L32.097,41.722 L33.578,42.16 L35.092,42.553 L36.642,42.898 L38.229,43.194 L39.855,43.439 L41.523,43.627 L43.234,43.757 L44.992,43.824 L46.802,43.823 L48.668,43.746 L50.595,43.587 L52.592,43.335 L54.667,42.978 L56.833,42.5 L56.833,42.5 L56.833,0.5" fill="none" stroke-width="1" stroke-dasharray="none"/><g><g stroke-dasharray="none"><path d="M-1,-1L1,-1L1,1L-1,1z" stroke-width="0" fill="none"/></g></g></g></g><g width="57" height="14" transform="scale(1,1) translate(0.667,0)"><g stroke="#BFBFBF" opacity="1" stroke-width="0" stroke-dasharray="none" width="57" height="14" transform="scale(1,1) translate(0,0)" fill="#FFFFFF" fill-opacity="1" stroke-opacity="1"><rect width="57" height="14"/></g></g></g></g></g></g><g width="475.833" height="598" transform="scale(1,1) translate(2478.667,404)"><g transform="scale(1,1) translate(0,0)" fill="none" stroke="#000000" stroke-opacity="1"><path d="M0,598 L0,0 L475.833,0 L475.833,598 L0,598 z" stroke-width="11.333" stroke-dasharray="none"/></g></g><g width="80" height="68" transform="rotate(90,2504,458) scale(1,1) translate(2464,424)"><g width="80" height="68"><g transform="scale(0.6357632147994221,0.9577464745850787) translate(0,0)"><g><g width="122.833" height="14.5" transform="scale(1,1) translate(1,56.5)"><g stroke="#BFBFBF" opacity="1" stroke-width="0" stroke-dasharray="none" width="122.833" height="14.5" transform="scale(1,1) translate(0,0)" fill="#FFFFFF" fill-opacity="1" stroke-opacity="1"><rect width="122.833" height="14.5"/></g></g><g width="61.333" height="54.5" transform="scale(1,1) translate(0.5,0.5)"><g transform="scale(1,1) translate(0,0)" fill="#000000" stroke="#000000" stroke-opacity="1"><path d="M0,54.5 L0,0 L0,0 L2.101,0.157 L4.148,0.374 L6.144,0.648 L8.093,0.976 L9.996,1.355 L11.857,1.781 L13.677,2.254 L15.459,2.77 L17.202,3.329 L18.91,3.928 L20.583,4.566 L22.221,5.243 L23.827,5.957 L25.401,6.706 L26.943,7.492 L28.455,8.311 L29.936,9.165 L31.388,10.052 L32.811,10.972 L34.204,11.925 L35.569,12.91 L36.905,13.927 L38.213,14.976 L39.493,16.057 L40.745,17.169 L41.968,18.313 L43.164,19.488 L44.331,20.696 L45.469,21.935 L46.579,23.207 L47.66,24.511 L48.712,25.849 L49.734,27.22 L50.726,28.624 L51.687,30.064 L52.616,31.538 L53.514,33.049 L54.379,34.597 L55.209,36.183 L56.005,37.808 L56.765,39.474 L57.487,41.182 L58.17,42.934 L58.813,44.732 L59.412,46.578 L59.967,48.475 L60.474,50.425 L60.931,52.432 L61.333,54.5 L61.333,54.5" fill="none" stroke-width="1" stroke-dasharray="none"/><g><g stroke-dasharray="none"><path d="M-1,53.5L1,53.5L1,55.5L-1,55.5z" stroke-width="0" fill="none"/></g></g></g></g><g width="61.333" height="54.5" transform="scale(1,1) translate(62,0.5)"><g transform="scale(1,1) translate(0,0)" fill="#000000" stroke="#000000" stroke-opacity="1"><path d="M61.333,54.5 L61.333,0 L61.333,0 L59.198,0.118 L57.121,0.301 L55.097,0.545 L53.124,0.845 L51.198,1.199 L49.317,1.603 L47.479,2.055 L45.682,2.553 L43.923,3.095 L42.202,3.679 L40.517,4.304 L38.868,4.968 L37.252,5.671 L35.67,6.411 L34.12,7.187 L32.601,7.999 L31.114,8.846 L29.657,9.728 L28.23,10.643 L26.833,11.592 L25.465,12.574 L24.127,13.588 L22.818,14.635 L21.537,15.715 L20.285,16.828 L19.062,17.972 L17.869,19.149 L16.704,20.359 L15.568,21.602 L14.461,22.878 L13.385,24.187 L12.338,25.53 L11.322,26.908 L10.337,28.32 L9.384,29.768 L8.463,31.253 L7.575,32.774 L6.722,34.335 L5.903,35.934 L5.12,37.574 L4.376,39.257 L3.67,40.984 L3.004,42.756 L2.382,44.576 L1.804,46.447 L1.274,48.371 L0.794,50.352 L0.368,52.394 L0,54.5 L0,54.5" fill="none" stroke-width="1" stroke-dasharray="none"/><g><g stroke-dasharray="none"><path d="M60.333,53.5L62.333,53.5L62.333,55.5L60.333,55.5z" stroke-width="0" fill="none"/></g></g></g></g></g></g></g></g><g width="79.167" height="68" transform="rotate(90,2504.083,949.833) scale(1,1) translate(2464.5,915.833)"><g width="79.167" height="68"><g transform="scale(0.6291406813119281,0.9577464745850787) translate(0,0)"><g><g width="122.833" height="14.5" transform="scale(1,1) translate(1,56.5)"><g stroke="#BFBFBF" opacity="1" stroke-width="0" stroke-dasharray="none" width="122.833" height="14.5" transform="scale(1,1) translate(0,0)" fill="#FFFFFF" fill-opacity="1" stroke-opacity="1"><rect width="122.833" height="14.5"/></g></g><g width="61.333" height="54.5" transform="scale(1,1) translate(0.5,0.5)"><g transform="scale(1,1) translate(0,0)" fill="#000000" stroke="#000000" stroke-opacity="1"><path d="M0,54.5 L0,0 L0,0 L2.101,0.157 L4.148,0.374 L6.144,0.648 L8.093,0.976 L9.996,1.355 L11.857,1.781 L13.677,2.254 L15.459,2.77 L17.202,3.329 L18.91,3.928 L20.583,4.566 L22.221,5.243 L23.827,5.957 L25.401,6.706 L26.943,7.492 L28.455,8.311 L29.936,9.165 L31.388,10.052 L32.811,10.972 L34.204,11.925 L35.569,12.91 L36.905,13.927 L38.213,14.976 L39.493,16.057 L40.745,17.169 L41.968,18.313 L43.164,19.488 L44.331,20.696 L45.469,21.935 L46.579,23.207 L47.66,24.511 L48.712,25.849 L49.734,27.22 L50.726,28.624 L51.687,30.064 L52.616,31.538 L53.514,33.049 L54.379,34.597 L55.209,36.183 L56.005,37.808 L56.765,39.474 L57.487,41.182 L58.17,42.934 L58.813,44.732 L59.412,46.578 L59.967,48.475 L60.474,50.425 L60.931,52.432 L61.333,54.5 L61.333,54.5" fill="none" stroke-width="1" stroke-dasharray="none"/><g><g stroke-dasharray="none"><path d="M-1,53.5L1,53.5L1,55.5L-1,55.5z" stroke-width="0" fill="none"/></g></g></g></g><g width="61.333" height="54.5" transform="scale(1,1) translate(62,0.5)"><g transform="scale(1,1) translate(0,0)" fill="#000000" stroke="#000000" stroke-opacity="1"><path d="M61.333,54.5 L61.333,0 L61.333,0 L59.198,0.118 L57.121,0.301 L55.097,0.545 L53.124,0.845 L51.198,1.199 L49.317,1.603 L47.479,2.055 L45.682,2.553 L43.923,3.095 L42.202,3.679 L40.517,4.304 L38.868,4.968 L37.252,5.671 L35.67,6.411 L34.12,7.187 L32.601,7.999 L31.114,8.846 L29.657,9.728 L28.23,10.643 L26.833,11.592 L25.465,12.574 L24.127,13.588 L22.818,14.635 L21.537,15.715 L20.285,16.828 L19.062,17.972 L17.869,19.149 L16.704,20.359 L15.568,21.602 L14.461,22.878 L13.385,24.187 L12.338,25.53 L11.322,26.908 L10.337,28.32 L9.384,29.768 L8.463,31.253 L7.575,32.774 L6.722,34.335 L5.903,35.934 L5.12,37.574 L4.376,39.257 L3.67,40.984 L3.004,42.756 L2.382,44.576 L1.804,46.447 L1.274,48.371 L0.794,50.352 L0.368,52.394 L0,54.5 L0,54.5" fill="none" stroke-width="1" stroke-dasharray="none"/><g><g stroke-dasharray="none"><path d="M60.333,53.5L62.333,53.5L62.333,55.5L60.333,55.5z" stroke-width="0" fill="none"/></g></g></g></g></g></g></g></g><g width="69.5" height="68" transform="scale(1,1) translate(339.667,423.833)"><g width="69.5" height="68"><g transform="scale(0.552319292856998,0.9577464745850787) translate(0,0)"><g><g width="122.833" height="14.5" transform="scale(1,1) translate(1,56.5)"><g stroke="#BFBFBF" opacity="1" stroke-width="0" stroke-dasharray="none" width="122.833" height="14.5" transform="scale(1,1) translate(0,0)" fill="#FFFFFF" fill-opacity="1" stroke-opacity="1"><rect width="122.833" height="14.5"/></g></g><g width="61.333" height="54.5" transform="scale(1,1) translate(0.5,0.5)"><g transform="scale(1,1) translate(0,0)" fill="#000000" stroke="#000000" stroke-opacity="1"><path d="M0,54.5 L0,0 L0,0 L2.101,0.157 L4.148,0.374 L6.144,0.648 L8.093,0.976 L9.996,1.355 L11.857,1.781 L13.677,2.254 L15.459,2.77 L17.202,3.329 L18.91,3.928 L20.583,4.566 L22.221,5.243 L23.827,5.957 L25.401,6.706 L26.943,7.492 L28.455,8.311 L29.936,9.165 L31.388,10.052 L32.811,10.972 L34.204,11.925 L35.569,12.91 L36.905,13.927 L38.213,14.976 L39.493,16.057 L40.745,17.169 L41.968,18.313 L43.164,19.488 L44.331,20.696 L45.469,21.935 L46.579,23.207 L47.66,24.511 L48.712,25.849 L49.734,27.22 L50.726,28.624 L51.687,30.064 L52.616,31.538 L53.514,33.049 L54.379,34.597 L55.209,36.183 L56.005,37.808 L56.765,39.474 L57.487,41.182 L58.17,42.934 L58.813,44.732 L59.412,46.578 L59.967,48.475 L60.474,50.425 L60.931,52.432 L61.333,54.5 L61.333,54.5" fill="none" stroke-width="1" stroke-dasharray="none"/><g><g stroke-dasharray="none"><path d="M-1,53.5L1,53.5L1,55.5L-1,55.5z" stroke-width="0" fill="none"/></g></g></g></g><g width="61.333" height="54.5" transform="scale(1,1) translate(62,0.5)"><g transform="scale(1,1) translate(0,0)" fill="#000000" stroke="#000000" stroke-opacity="1"><path d="M61.333,54.5 L61.333,0 L61.333,0 L59.198,0.118 L57.121,0.301 L55.097,0.545 L53.124,0.845 L51.198,1.199 L49.317,1.603 L47.479,2.055 L45.682,2.553 L43.923,3.095 L42.202,3.679 L40.517,4.304 L38.868,4.968 L37.252,5.671 L35.67,6.411 L34.12,7.187 L32.601,7.999 L31.114,8.846 L29.657,9.728 L28.23,10.643 L26.833,11.592 L25.465,12.574 L24.127,13.588 L22.818,14.635 L21.537,15.715 L20.285,16.828 L19.062,17.972 L17.869,19.149 L16.704,20.359 L15.568,21.602 L14.461,22.878 L13.385,24.187 L12.338,25.53 L11.322,26.908 L10.337,28.32 L9.384,29.768 L8.463,31.253 L7.575,32.774 L6.722,34.335 L5.903,35.934 L5.12,37.574 L4.376,39.257 L3.67,40.984 L3.004,42.756 L2.382,44.576 L1.804,46.447 L1.274,48.371 L0.794,50.352 L0.368,52.394 L0,54.5 L0,54.5" fill="none" stroke-width="1" stroke-dasharray="none"/><g><g stroke-dasharray="none"><path d="M60.333,53.5L62.333,53.5L62.333,55.5L60.333,55.5z" stroke-width="0" fill="none"/></g></g></g></g></g></g></g></g><g width="67" height="68" transform="scale(1,1) translate(649.667,423.833)"><g width="67" height="68"><g transform="scale(0.5324516923945161,0.9577464745850787) translate(0,0)"><g><g width="122.833" height="14.5" transform="scale(1,1) translate(1,56.5)"><g stroke="#BFBFBF" opacity="1" stroke-width="0" stroke-dasharray="none" width="122.833" height="14.5" transform="scale(1,1) translate(0,0)" fill="#FFFFFF" fill-opacity="1" stroke-opacity="1"><rect width="122.833" height="14.5"/></g></g><g width="61.333" height="54.5" transform="scale(1,1) translate(0.5,0.5)"><g transform="scale(1,1) translate(0,0)" fill="#000000" stroke="#000000" stroke-opacity="1"><path d="M0,54.5 L0,0 L0,0 L2.101,0.157 L4.148,0.374 L6.144,0.648 L8.093,0.976 L9.996,1.355 L11.857,1.781 L13.677,2.254 L15.459,2.77 L17.202,3.329 L18.91,3.928 L20.583,4.566 L22.221,5.243 L23.827,5.957 L25.401,6.706 L26.943,7.492 L28.455,8.311 L29.936,9.165 L31.388,10.052 L32.811,10.972 L34.204,11.925 L35.569,12.91 L36.905,13.927 L38.213,14.976 L39.493,16.057 L40.745,17.169 L41.968,18.313 L43.164,19.488 L44.331,20.696 L45.469,21.935 L46.579,23.207 L47.66,24.511 L48.712,25.849 L49.734,27.22 L50.726,28.624 L51.687,30.064 L52.616,31.538 L53.514,33.049 L54.379,34.597 L55.209,36.183 L56.005,37.808 L56.765,39.474 L57.487,41.182 L58.17,42.934 L58.813,44.732 L59.412,46.578 L59.967,48.475 L60.474,50.425 L60.931,52.432 L61.333,54.5 L61.333,54.5" fill="none" stroke-width="1" stroke-dasharray="none"/><g><g stroke-dasharray="none"><path d="M-1,53.5L1,53.5L1,55.5L-1,55.5z" stroke-width="0" fill="none"/></g></g></g></g><g width="61.333" height="54.5" transform="scale(1,1) translate(62,0.5)"><g transform="scale(1,1) translate(0,0)" fill="#000000" stroke="#000000" stroke-opacity="1"><path d="M61.333,54.5 L61.333,0 L61.333,0 L59.198,0.118 L57.121,0.301 L55.097,0.545 L53.124,0.845 L51.198,1.199 L49.317,1.603 L47.479,2.055 L45.682,2.553 L43.923,3.095 L42.202,3.679 L40.517,4.304 L38.868,4.968 L37.252,5.671 L35.67,6.411 L34.12,7.187 L32.601,7.999 L31.114,8.846 L29.657,9.728 L28.23,10.643 L26.833,11.592 L25.465,12.574 L24.127,13.588 L22.818,14.635 L21.537,15.715 L20.285,16.828 L19.062,17.972 L17.869,19.149 L16.704,20.359 L15.568,21.602 L14.461,22.878 L13.385,24.187 L12.338,25.53 L11.322,26.908 L10.337,28.32 L9.384,29.768 L8.463,31.253 L7.575,32.774 L6.722,34.335 L5.903,35.934 L5.12,37.574 L4.376,39.257 L3.67,40.984 L3.004,42.756 L2.382,44.576 L1.804,46.447 L1.274,48.371 L0.794,50.352 L0.368,52.394 L0,54.5 L0,54.5" fill="none" stroke-width="1" stroke-dasharray="none"/><g><g stroke-dasharray="none"><path d="M60.333,53.5L62.333,53.5L62.333,55.5L60.333,55.5z" stroke-width="0" fill="none"/></g></g></g></g></g></g></g></g><g width="69.5" height="68" transform="scale(1,1) translate(1054.5,423.833)"><g width="69.5" height="68"><g transform="scale(0.552319292856998,0.9577464745850787) translate(0,0)"><g><g width="122.833" height="14.5" transform="scale(1,1) translate(1,56.5)"><g stroke="#BFBFBF" opacity="1" stroke-width="0" stroke-dasharray="none" width="122.833" height="14.5" transform="scale(1,1) translate(0,0)" fill="#FFFFFF" fill-opacity="1" stroke-opacity="1"><rect width="122.833" height="14.5"/></g></g><g width="61.333" height="54.5" transform="scale(1,1) translate(0.5,0.5)"><g transform="scale(1,1) translate(0,0)" fill="#000000" stroke="#000000" stroke-opacity="1"><path d="M0,54.5 L0,0 L0,0 L2.101,0.157 L4.148,0.374 L6.144,0.648 L8.093,0.976 L9.996,1.355 L11.857,1.781 L13.677,2.254 L15.459,2.77 L17.202,3.329 L18.91,3.928 L20.583,4.566 L22.221,5.243 L23.827,5.957 L25.401,6.706 L26.943,7.492 L28.455,8.311 L29.936,9.165 L31.388,10.052 L32.811,10.972 L34.204,11.925 L35.569,12.91 L36.905,13.927 L38.213,14.976 L39.493,16.057 L40.745,17.169 L41.968,18.313 L43.164,19.488 L44.331,20.696 L45.469,21.935 L46.579,23.207 L47.66,24.511 L48.712,25.849 L49.734,27.22 L50.726,28.624 L51.687,30.064 L52.616,31.538 L53.514,33.049 L54.379,34.597 L55.209,36.183 L56.005,37.808 L56.765,39.474 L57.487,41.182 L58.17,42.934 L58.813,44.732 L59.412,46.578 L59.967,48.475 L60.474,50.425 L60.931,52.432 L61.333,54.5 L61.333,54.5" fill="none" stroke-width="1" stroke-dasharray="none"/><g><g stroke-dasharray="none"><path d="M-1,53.5L1,53.5L1,55.5L-1,55.5z" stroke-width="0" fill="none"/></g></g></g></g><g width="61.333" height="54.5" transform="scale(1,1) translate(62,0.5)"><g transform="scale(1,1) translate(0,0)" fill="#000000" stroke="#000000" stroke-opacity="1"><path d="M61.333,54.5 L61.333,0 L61.333,0 L59.198,0.118 L57.121,0.301 L55.097,0.545 L53.124,0.845 L51.198,1.199 L49.317,1.603 L47.479,2.055 L45.682,2.553 L43.923,3.095 L42.202,3.679 L40.517,4.304 L38.868,4.968 L37.252,5.671 L35.67,6.411 L34.12,7.187 L32.601,7.999 L31.114,8.846 L29.657,9.728 L28.23,10.643 L26.833,11.592 L25.465,12.574 L24.127,13.588 L22.818,14.635 L21.537,15.715 L20.285,16.828 L19.062,17.972 L17.869,19.149 L16.704,20.359 L15.568,21.602 L14.461,22.878 L13.385,24.187 L12.338,25.53 L11.322,26.908 L10.337,28.32 L9.384,29.768 L8.463,31.253 L7.575,32.774 L6.722,34.335 L5.903,35.934 L5.12,37.574 L4.376,39.257 L3.67,40.984 L3.004,42.756 L2.382,44.576 L1.804,46.447 L1.274,48.371 L0.794,50.352 L0.368,52.394 L0,54.5 L0,54.5" fill="none" stroke-width="1" stroke-dasharray="none"/><g><g stroke-dasharray="none"><path d="M60.333,53.5L62.333,53.5L62.333,55.5L60.333,55.5z" stroke-width="0" fill="none"/></g></g></g></g></g></g></g></g><g width="64.5" height="68" transform="scale(1,1) translate(1328.5,423.833)"><g width="64.5" height="68"><g transform="scale(0.5125840919320341,0.9577464745850787) translate(0,0)"><g><g width="122.833" height="14.5" transform="scale(1,1) translate(1,56.5)"><g stroke="#BFBFBF" opacity="1" stroke-width="0" stroke-dasharray="none" width="122.833" height="14.5" transform="scale(1,1) translate(0,0)" fill="#FFFFFF" fill-opacity="1" stroke-opacity="1"><rect width="122.833" height="14.5"/></g></g><g width="61.333" height="54.5" transform="scale(1,1) translate(0.5,0.5)"><g transform="scale(1,1) translate(0,0)" fill="#000000" stroke="#000000" stroke-opacity="1"><path d="M0,54.5 L0,0 L0,0 L2.101,0.157 L4.148,0.374 L6.144,0.648 L8.093,0.976 L9.996,1.355 L11.857,1.781 L13.677,2.254 L15.459,2.77 L17.202,3.329 L18.91,3.928 L20.583,4.566 L22.221,5.243 L23.827,5.957 L25.401,6.706 L26.943,7.492 L28.455,8.311 L29.936,9.165 L31.388,10.052 L32.811,10.972 L34.204,11.925 L35.569,12.91 L36.905,13.927 L38.213,14.976 L39.493,16.057 L40.745,17.169 L41.968,18.313 L43.164,19.488 L44.331,20.696 L45.469,21.935 L46.579,23.207 L47.66,24.511 L48.712,25.849 L49.734,27.22 L50.726,28.624 L51.687,30.064 L52.616,31.538 L53.514,33.049 L54.379,34.597 L55.209,36.183 L56.005,37.808 L56.765,39.474 L57.487,41.182 L58.17,42.934 L58.813,44.732 L59.412,46.578 L59.967,48.475 L60.474,50.425 L60.931,52.432 L61.333,54.5 L61.333,54.5" fill="none" stroke-width="1" stroke-dasharray="none"/><g><g stroke-dasharray="none"><path d="M-1,53.5L1,53.5L1,55.5L-1,55.5z" stroke-width="0" fill="none"/></g></g></g></g><g width="61.333" height="54.5" transform="scale(1,1) translate(62,0.5)"><g transform="scale(1,1) translate(0,0)" fill="#000000" stroke="#000000" stroke-opacity="1"><path d="M61.333,54.5 L61.333,0 L61.333,0 L59.198,0.118 L57.121,0.301 L55.097,0.545 L53.124,0.845 L51.198,1.199 L49.317,1.603 L47.479,2.055 L45.682,2.553 L43.923,3.095 L42.202,3.679 L40.517,4.304 L38.868,4.968 L37.252,5.671 L35.67,6.411 L34.12,7.187 L32.601,7.999 L31.114,8.846 L29.657,9.728 L28.23,10.643 L26.833,11.592 L25.465,12.574 L24.127,13.588 L22.818,14.635 L21.537,15.715 L20.285,16.828 L19.062,17.972 L17.869,19.149 L16.704,20.359 L15.568,21.602 L14.461,22.878 L13.385,24.187 L12.338,25.53 L11.322,26.908 L10.337,28.32 L9.384,29.768 L8.463,31.253 L7.575,32.774 L6.722,34.335 L5.903,35.934 L5.12,37.574 L4.376,39.257 L3.67,40.984 L3.004,42.756 L2.382,44.576 L1.804,46.447 L1.274,48.371 L0.794,50.352 L0.368,52.394 L0,54.5 L0,54.5" fill="none" stroke-width="1" stroke-dasharray="none"/><g><g stroke-dasharray="none"><path d="M60.333,53.5L62.333,53.5L62.333,55.5L60.333,55.5z" stroke-width="0" fill="none"/></g></g></g></g></g></g></g></g><g width="67.5" height="68" transform="rotate(90,335.583,930.333) scale(1,1) translate(301.833,896.333)"><g width="67.5" height="68"><g transform="scale(0.5364252124870125,0.9577464745850787) translate(0,0)"><g><g width="122.833" height="14.5" transform="scale(1,1) translate(1,56.5)"><g stroke="#BFBFBF" opacity="1" stroke-width="0" stroke-dasharray="none" width="122.833" height="14.5" transform="scale(1,1) translate(0,0)" fill="#FFFFFF" fill-opacity="1" stroke-opacity="1"><rect width="122.833" height="14.5"/></g></g><g width="61.333" height="54.5" transform="scale(1,1) translate(0.5,0.5)"><g transform="scale(1,1) translate(0,0)" fill="#000000" stroke="#000000" stroke-opacity="1"><path d="M0,54.5 L0,0 L0,0 L2.101,0.157 L4.148,0.374 L6.144,0.648 L8.093,0.976 L9.996,1.355 L11.857,1.781 L13.677,2.254 L15.459,2.77 L17.202,3.329 L18.91,3.928 L20.583,4.566 L22.221,5.243 L23.827,5.957 L25.401,6.706 L26.943,7.492 L28.455,8.311 L29.936,9.165 L31.388,10.052 L32.811,10.972 L34.204,11.925 L35.569,12.91 L36.905,13.927 L38.213,14.976 L39.493,16.057 L40.745,17.169 L41.968,18.313 L43.164,19.488 L44.331,20.696 L45.469,21.935 L46.579,23.207 L47.66,24.511 L48.712,25.849 L49.734,27.22 L50.726,28.624 L51.687,30.064 L52.616,31.538 L53.514,33.049 L54.379,34.597 L55.209,36.183 L56.005,37.808 L56.765,39.474 L57.487,41.182 L58.17,42.934 L58.813,44.732 L59.412,46.578 L59.967,48.475 L60.474,50.425 L60.931,52.432 L61.333,54.5 L61.333,54.5" fill="none" stroke-width="1" stroke-dasharray="none"/><g><g stroke-dasharray="none"><path d="M-1,53.5L1,53.5L1,55.5L-1,55.5z" stroke-width="0" fill="none"/></g></g></g></g><g width="61.333" height="54.5" transform="scale(1,1) translate(62,0.5)"><g transform="scale(1,1) translate(0,0)" fill="#000000" stroke="#000000" stroke-opacity="1"><path d="M61.333,54.5 L61.333,0 L61.333,0 L59.198,0.118 L57.121,0.301 L55.097,0.545 L53.124,0.845 L51.198,1.199 L49.317,1.603 L47.479,2.055 L45.682,2.553 L43.923,3.095 L42.202,3.679 L40.517,4.304 L38.868,4.968 L37.252,5.671 L35.67,6.411 L34.12,7.187 L32.601,7.999 L31.114,8.846 L29.657,9.728 L28.23,10.643 L26.833,11.592 L25.465,12.574 L24.127,13.588 L22.818,14.635 L21.537,15.715 L20.285,16.828 L19.062,17.972 L17.869,19.149 L16.704,20.359 L15.568,21.602 L14.461,22.878 L13.385,24.187 L12.338,25.53 L11.322,26.908 L10.337,28.32 L9.384,29.768 L8.463,31.253 L7.575,32.774 L6.722,34.335 L5.903,35.934 L5.12,37.574 L4.376,39.257 L3.67,40.984 L3.004,42.756 L2.382,44.576 L1.804,46.447 L1.274,48.371 L0.794,50.352 L0.368,52.394 L0,54.5 L0,54.5" fill="none" stroke-width="1" stroke-dasharray="none"/><g><g stroke-dasharray="none"><path d="M60.333,53.5L62.333,53.5L62.333,55.5L60.333,55.5z" stroke-width="0" fill="none"/></g></g></g></g></g></g></g></g><g width="68.167" height="68" transform="rotate(90,972.417,753) scale(1,1) translate(938.333,719)"><g width="68.167" height="68"><g transform="scale(0.5417232392770075,0.9577464745850787) translate(0,0)"><g><g width="122.833" height="14.5" transform="scale(1,1) translate(1,56.5)"><g stroke="#BFBFBF" opacity="1" stroke-width="0" stroke-dasharray="none" width="122.833" height="14.5" transform="scale(1,1) translate(0,0)" fill="#FFFFFF" fill-opacity="1" stroke-opacity="1"><rect width="122.833" height="14.5"/></g></g><g width="61.333" height="54.5" transform="scale(1,1) translate(0.5,0.5)"><g transform="scale(1,1) translate(0,0)" fill="#000000" stroke="#000000" stroke-opacity="1"><path d="M0,54.5 L0,0 L0,0 L2.101,0.157 L4.148,0.374 L6.144,0.648 L8.093,0.976 L9.996,1.355 L11.857,1.781 L13.677,2.254 L15.459,2.77 L17.202,3.329 L18.91,3.928 L20.583,4.566 L22.221,5.243 L23.827,5.957 L25.401,6.706 L26.943,7.492 L28.455,8.311 L29.936,9.165 L31.388,10.052 L32.811,10.972 L34.204,11.925 L35.569,12.91 L36.905,13.927 L38.213,14.976 L39.493,16.057 L40.745,17.169 L41.968,18.313 L43.164,19.488 L44.331,20.696 L45.469,21.935 L46.579,23.207 L47.66,24.511 L48.712,25.849 L49.734,27.22 L50.726,28.624 L51.687,30.064 L52.616,31.538 L53.514,33.049 L54.379,34.597 L55.209,36.183 L56.005,37.808 L56.765,39.474 L57.487,41.182 L58.17,42.934 L58.813,44.732 L59.412,46.578 L59.967,48.475 L60.474,50.425 L60.931,52.432 L61.333,54.5 L61.333,54.5" fill="none" stroke-width="1" stroke-dasharray="none"/><g><g stroke-dasharray="none"><path d="M-1,53.5L1,53.5L1,55.5L-1,55.5z" stroke-width="0" fill="none"/></g></g></g></g><g width="61.333" height="54.5" transform="scale(1,1) translate(62,0.5)"><g transform="scale(1,1) translate(0,0)" fill="#000000" stroke="#000000" stroke-opacity="1"><path d="M61.333,54.5 L61.333,0 L61.333,0 L59.198,0.118 L57.121,0.301 L55.097,0.545 L53.124,0.845 L51.198,1.199 L49.317,1.603 L47.479,2.055 L45.682,2.553 L43.923,3.095 L42.202,3.679 L40.517,4.304 L38.868,4.968 L37.252,5.671 L35.67,6.411 L34.12,7.187 L32.601,7.999 L31.114,8.846 L29.657,9.728 L28.23,10.643 L26.833,11.592 L25.465,12.574 L24.127,13.588 L22.818,14.635 L21.537,15.715 L20.285,16.828 L19.062,17.972 L17.869,19.149 L16.704,20.359 L15.568,21.602 L14.461,22.878 L13.385,24.187 L12.338,25.53 L11.322,26.908 L10.337,28.32 L9.384,29.768 L8.463,31.253 L7.575,32.774 L6.722,34.335 L5.903,35.934 L5.12,37.574 L4.376,39.257 L3.67,40.984 L3.004,42.756 L2.382,44.576 L1.804,46.447 L1.274,48.371 L0.794,50.352 L0.368,52.394 L0,54.5 L0,54.5" fill="none" stroke-width="1" stroke-dasharray="none"/><g><g stroke-dasharray="none"><path d="M60.333,53.5L62.333,53.5L62.333,55.5L60.333,55.5z" stroke-width="0" fill="none"/></g></g></g></g></g></g></g></g></g></svg>