<?xml version="1.0" standalone="no"?><!DOCTYPE svg PUBLIC "-//W3C//DTD SVG 1.1//EN" "http://www.w3.org/Graphics/SVG/1.1/DTD/svg11.dtd"><svg xmlns="http://www.w3.org/2000/svg" version="1.1" width="386.123" height="601.693" xmlns:xlink="http://www.w3.org/1999/xlink" xlink="http://www.w3.org/1999/xlink" style="position:relative;overflow:hidden;" viewBox="180.166 84.474 386.123 601.693"><defs/><g><g width="357.79" height="519.167" transform="scale(1,1) translate(197.833,156.333)"><g transform="scale(1,1) translate(0,0)" fill="none" stroke="#000000" stroke-opacity="1"><path d="M0,519.167 L0,0 L357.79,0 L357.79,519.167 L0,519.167 z" stroke-width="11.333" stroke-dasharray="none"/></g></g><g width="68.333" height="68" transform="scale(1,1) translate(330.941,96.974)"><g width="68.333" height="68"><g transform="scale(0.5430477459745063,0.9577464745850787) translate(0,0)"><g><g width="122.833" height="14.5" transform="scale(1,1) translate(1,56.5)"><g stroke="#BFBFBF" opacity="1" stroke-width="0" stroke-dasharray="none" width="122.833" height="14.5" transform="scale(1,1) translate(0,0)" fill="#FFFFFF" fill-opacity="1" stroke-opacity="1"><rect width="122.833" height="14.5"/></g></g><g width="61.333" height="54.5" transform="scale(1,1) translate(0.5,0.5)"><g transform="scale(1,1) translate(0,0)" fill="#000000" stroke="#000000" stroke-opacity="1"><path d="M0,54.5 L0,0 L0,0 L2.101,0.157 L4.148,0.374 L6.144,0.648 L8.093,0.976 L9.996,1.355 L11.857,1.781 L13.677,2.254 L15.459,2.77 L17.202,3.329 L18.91,3.928 L20.583,4.566 L22.221,5.243 L23.827,5.957 L25.401,6.706 L26.943,7.492 L28.455,8.311 L29.936,9.165 L31.388,10.052 L32.811,10.972 L34.204,11.925 L35.569,12.91 L36.905,13.927 L38.213,14.976 L39.493,16.057 L40.745,17.169 L41.968,18.313 L43.164,19.488 L44.331,20.696 L45.469,21.935 L46.579,23.207 L47.66,24.511 L48.712,25.849 L49.734,27.22 L50.726,28.624 L51.687,30.064 L52.616,31.538 L53.514,33.049 L54.379,34.597 L55.209,36.183 L56.005,37.808 L56.765,39.474 L57.487,41.182 L58.17,42.934 L58.813,44.732 L59.412,46.578 L59.967,48.475 L60.474,50.425 L60.931,52.432 L61.333,54.5 L61.333,54.5" fill="none" stroke-width="1" stroke-dasharray="none"/><g><g stroke-dasharray="none"><path d="M-1,53.5L1,53.5L1,55.5L-1,55.5z" stroke-width="0" fill="none"/></g></g></g></g><g width="61.333" height="54.5" transform="scale(1,1) translate(62,0.5)"><g transform="scale(1,1) translate(0,0)" fill="#000000" stroke="#000000" stroke-opacity="1"><path d="M61.333,54.5 L61.333,0 L61.333,0 L59.198,0.118 L57.121,0.301 L55.097,0.545 L53.124,0.845 L51.198,1.199 L49.317,1.603 L47.479,2.055 L45.682,2.553 L43.923,3.095 L42.202,3.679 L40.517,4.304 L38.868,4.968 L37.252,5.671 L35.67,6.411 L34.12,7.187 L32.601,7.999 L31.114,8.846 L29.657,9.728 L28.23,10.643 L26.833,11.592 L25.465,12.574 L24.127,13.588 L22.818,14.635 L21.537,15.715 L20.285,16.828 L19.062,17.972 L17.869,19.149 L16.704,20.359 L15.568,21.602 L14.461,22.878 L13.385,24.187 L12.338,25.53 L11.322,26.908 L10.337,28.32 L9.384,29.768 L8.463,31.253 L7.575,32.774 L6.722,34.335 L5.903,35.934 L5.12,37.574 L4.376,39.257 L3.67,40.984 L3.004,42.756 L2.382,44.576 L1.804,46.447 L1.274,48.371 L0.794,50.352 L0.368,52.394 L0,54.5 L0,54.5" fill="none" stroke-width="1" stroke-dasharray="none"/><g><g stroke-dasharray="none"><path d="M60.333,53.5L62.333,53.5L62.333,55.5L60.333,55.5z" stroke-width="0" fill="none"/></g></g></g></g></g></g></g></g></g></svg>